<svg xmlns="http://www.w3.org/2000/svg" xmlns:xlink="http://www.w3.org/1999/xlink" width="583.13232421875"
	height="433.5316162109375" viewBox="30 30 563.13232421875 353.5316162109375" fill="none">
	<path
		d="M47.547 192.882C28.7466 67.9122 168.963 112.472 210.519 137.429C287.859 202.189 320.737 187.307 399.662 130.202C478.588 73.0988 543.087 113.62 568.534 172.105C593.986 230.59 608.762 355.771 411.553 380.272C214.339 404.769 64.8968 308.191 47.547 192.882Z"
		fill="#FFF8E4">
	</path>
	<path
		d="M144.222 330.59C144.222 330.59 431.059 236.541 571.642 293.696C571.642 293.696 524.216 379.834 367.947 383.727C237.054 385.766 144.222 330.59 144.222 330.59Z"
		fill="#DBFFF5">
	</path>
	<path
		d="M225.857 33.6121C238.324 94.9912 284.51 136.698 341.457 125.047C398.403 113.397 412.907 57.906 389.27 33.4661C365.633 9.02621 213.39 -27.7682 225.857 33.6121Z"
		fill="#FFF8E4">
	</path>
	<g mask="url(#mask-3ZEb26am0k)">
		<path
			d="M482.092 383.172C482.092 383.172 476.529 377.757 471.599 376.855C466.669 375.952 458.366 383.664 455.222 385.035C466.985 387.388 468.325 387.692 472.163 387.692C476.002 387.692 482.092 383.172 482.092 383.172Z"
			fill="#CA7856">
		</path>
		<path
			d="M470.211 344.699C472.183 344.352 473.495 342.445 473.141 340.441C472.787 338.436 470.464 333.617 468.492 333.964C466.52 334.312 465.647 339.694 466.001 341.699C466.355 343.703 468.24 345.046 470.211 344.699Z"
			fill="#0ACC94">
		</path>
		<path stroke="rgba(24, 35, 61, 1)" stroke-width="1" stroke-linecap="round" d="M470.167 340.932L470.167 379.672">
		</path>
		<path
			d="M475.242 364.2C477.013 366.309 480.135 366.604 482.215 364.859C484.296 363.115 488.276 357.174 486.506 355.066C484.735 352.957 477.884 355.48 475.804 357.224C473.723 358.969 473.472 362.092 475.242 364.2Z"
			fill="#0ACC94">
		</path>
		<path
			d="M473.392 347.4C475.163 349.509 478.285 349.804 480.365 348.06C482.445 346.315 486.426 340.374 484.656 338.266C482.885 336.157 476.034 338.68 473.953 340.425C471.873 342.169 471.622 345.292 473.392 347.4Z"
			fill="#0ACC94">
		</path>
		<path
			d="M467.624 353.162C469.243 350.935 468.774 347.837 466.577 346.242C464.38 344.647 457.648 342.225 456.029 344.451C454.41 346.678 458.517 352.71 460.714 354.305C462.911 355.9 466.005 355.388 467.624 353.162Z"
			fill="#0ACC94">
		</path>
		<path
			d="M466.861 372.052C469.08 369.674 468.967 365.964 466.608 363.766C464.249 361.568 456.673 357.73 454.453 360.108C452.234 362.487 456.212 370.18 458.571 372.378C460.93 374.576 464.642 374.43 466.861 372.052Z"
			fill="#0ACC94">
		</path>
		<path stroke="rgba(24, 35, 61, 1)" stroke-width="1" stroke-linecap="round" d="M481.192 358.922L470.172 367.632">
		</path>
		<path stroke="rgba(24, 35, 61, 1)" stroke-width="1" stroke-linecap="round" d="M459.803 364.627L471.082 374.332">
		</path>
		<path stroke="rgba(24, 35, 61, 1)" stroke-width="1" stroke-linecap="round" d="M477.422 343.777L470.172 349.862">
		</path>
		<path stroke="rgba(24, 35, 61, 1)" stroke-width="1" stroke-linecap="round" d="M464.314 349.672L470.192 356.012">
		</path>
	</g>
	<g mask="url(#mask-3ZEb26am0k)">
		<path fill="#FFFFFF"
			d="M175.052 180.412C164.012 182.482 149.073 188.532 130.223 198.542C121.982 203.262 82.3925 226.082 77.4725 244.932C72.5625 263.782 88.7025 265.942 96.5325 266.182C104.363 266.432 142.003 240.322 142.003 240.322L142.003 253.542L232.413 261.752L232.413 240.322L259.492 253.542L284.962 266.432C284.962 266.432 290.473 265.502 296.092 256.802C301.712 248.112 290.312 232.232 272.302 217.582C254.303 202.922 236.413 190.722 233.562 189.222C228.173 186.362 218.833 183.092 205.542 179.392L175.052 180.412Z">
		</path>
		<path fill="rgba(24, 35, 61, 1)"
			d="M205.562 179.891L175.07 180.908L175.053 180.408L175.146 180.9L175.053 180.408L175.146 180.9Q158.666 183.996 130.46 198.985L130.225 198.544L130.473 198.978L130.225 198.544L130.473 198.978Q114.679 208.01 102.901 216.838Q93.1041 224.182 86.9986 230.736Q79.6342 238.642 77.9611 245.06L77.9611 245.06L77.9611 245.06Q76.2727 251.534 77.7541 256.016Q79.0027 259.794 82.5015 262.121Q87.4325 265.401 96.545 265.686L96.5294 266.186L96.545 265.686L96.5294 266.186L96.545 265.686Q97.8493 265.727 100.547 264.68Q103.06 263.705 106.699 261.809Q112.851 258.603 121.92 252.933Q128.408 248.877 135.704 243.994Q139.347 241.557 141.722 239.91L141.722 239.91L142.507 240.32L142.507 253.539L142.007 253.539L142.052 253.041L232.46 261.258L232.415 261.756L231.915 261.756L231.915 240.32L232.634 239.871L259.71 253.09L259.716 253.093L285.187 265.985L284.962 266.432L284.878 265.939L284.962 266.432L284.878 265.939Q285.176 265.888 285.737 265.681Q286.896 265.253 288.15 264.457Q289.923 263.332 291.626 261.625Q293.767 259.479 295.67 256.534L296.09 256.805L295.67 256.534L296.09 256.805L295.67 256.534Q297.615 253.523 296.784 249.161Q295.979 244.934 292.635 239.695Q289.4 234.63 284.045 229.012Q278.8 223.51 271.989 217.966L272.304 217.579L271.989 217.966L272.304 217.579L271.989 217.966Q265.682 212.833 258.754 207.575Q252.831 203.08 246.959 198.875Q241.969 195.301 238.006 192.639Q234.47 190.264 233.326 189.659L233.326 189.659L233.326 189.659Q225.291 185.407 205.411 179.873L205.545 179.392L205.562 179.891ZM205.528 178.892L205.679 178.91Q225.663 184.473 233.793 188.775L233.559 189.217L233.793 188.775L233.559 189.217L233.793 188.775Q234.984 189.405 238.564 191.809Q242.54 194.479 247.541 198.062Q253.424 202.275 259.358 206.779Q266.3 212.047 272.62 217.191L272.62 217.191L272.62 217.191Q279.48 222.774 284.769 228.322Q290.191 234.01 293.477 239.157Q296.926 244.558 297.767 248.974Q298.672 253.729 296.51 257.076L296.51 257.076L296.51 257.076Q294.549 260.11 292.334 262.331Q290.553 264.117 288.686 265.302Q287.342 266.155 286.083 266.619Q285.435 266.859 285.045 266.925L285.045 266.925L284.736 266.878L259.265 253.985L259.49 253.539L259.271 253.989L232.195 240.77L232.415 240.32L232.915 240.32L232.915 261.756L232.37 262.254L141.962 254.037L141.507 253.539L141.507 240.32L142.007 240.32L142.292 240.731L142.292 240.731Q139.91 242.383 136.261 244.825Q128.951 249.717 122.451 253.781Q113.348 259.472 107.161 262.696Q99.3341 266.774 96.5137 266.686L96.5137 266.686L96.5137 266.686Q87.1161 266.391 81.9477 262.954Q78.1615 260.435 76.8046 256.33Q75.2306 251.567 76.9935 244.807L77.4773 244.934L76.9935 244.807L77.4773 244.934L76.9935 244.807Q78.7303 238.145 86.2669 230.055Q92.4331 223.435 102.302 216.038Q114.129 207.172 129.977 198.11L129.977 198.11L129.99 198.102Q158.331 183.041 174.961 179.917L174.961 179.917L175.037 179.909L205.528 178.892ZM205.679 178.91L205.545 179.392L205.528 178.892L205.605 178.889L205.679 178.91ZM175.037 179.909L175.053 180.408L174.961 179.917L174.998 179.91L175.037 179.909ZM129.99 198.102L130.225 198.544L129.977 198.11L129.984 198.106L129.99 198.102ZM232.634 239.871L232.415 240.32L231.915 240.32L231.915 239.52L232.634 239.871ZM259.716 253.093L259.49 253.539L259.71 253.09L259.713 253.092L259.716 253.093ZM77.9611 245.06L77.4773 244.934L77.9611 245.06L77.9611 245.06L77.9611 245.06ZM284.736 266.878L284.962 266.432L285.045 266.925L284.883 266.952L284.736 266.878ZM233.326 189.659L233.559 189.217L233.326 189.659L233.326 189.659L233.326 189.659ZM96.5137 266.686L96.5294 266.186L96.5137 266.686L96.5137 266.686L96.5137 266.686ZM142.507 240.32L142.007 240.32L141.722 239.91L142.507 239.365L142.507 240.32ZM141.507 253.539L142.007 253.539L141.962 254.037L141.507 253.996L141.507 253.539ZM232.37 262.254L232.415 261.756L232.915 261.756L232.915 262.303L232.37 262.254Z">
		</path>
		<path
			d="M202.212 176.94C205.111 176.94 207.702 184.173 207.702 184.173L207.702 200.916L194.617 191.529L191.325 188.928L173.282 202.212C173.282 202.212 174.402 188.827 174.402 182.883C174.402 176.94 186.084 174.692 186.084 174.692C186.084 174.692 199.314 176.94 202.212 176.94Z"
			stroke="rgba(24, 35, 61, 1)" stroke-width="1" stroke-linecap="round" fill="#FFFFFF">
		</path>
		<path
			d="M201.771 180.646L191.321 195.782L179.834 179.994L178.4 160.461C178.4 160.461 174.735 155.353 173.611 143.962C173.611 143.962 169.701 142.961 169.188 138.249C168.675 133.536 171.853 133.536 171.853 133.536L175.908 120.562L210.883 120.562L210.38 132.973C210.38 132.973 213.72 132.055 213.035 138.774C212.355 142.809 208.504 143.962 208.504 143.962C208.504 143.962 206.548 158.68 203.323 161.19L201.771 180.646Z"
			stroke="rgba(24, 35, 61, 1)" stroke-width="1" stroke-linecap="round" fill="#FFFFFF">
		</path>
		<path stroke="rgba(24, 35, 61, 1)" stroke-width="1" stroke-linecap="round" d="M200.782 162.762L203.332 161.192">
		</path>
		<path stroke="rgba(24, 35, 61, 1)" stroke-width="1" stroke-linecap="round" d="M170.742 138.252L172.992 139.732">
		</path>
		<path
			d="M192.982 165.899C192.982 165.899 187.301 172.232 179.59 172.232L178.422 159.802C178.422 159.802 181.01 163.366 183.979 164.086C186.949 164.806 192.982 165.899 192.982 165.899Z"
			fill="#18233D">
		</path>
		<path
			d="M196.835 154.127Q196.688 153.961 196.425 153.724Q195.912 153.26 195.313 152.875Q193.382 151.632 191.287 151.632Q189.968 151.632 189.096 151.752Q188.019 151.9 187.224 152.274Q186.34 152.69 185.675 153.437Q184.998 154.197 184.486 155.374L184.486 155.374L184.486 155.374Q183.948 156.61 183.553 158.189Q183.12 159.916 183.008 161.491Q182.878 163.313 183.21 164.614Q183.613 166.194 184.671 166.887L184.671 166.887Q185.724 167.576 187.251 168.001Q188.863 168.449 190.583 168.48Q192.497 168.513 194.222 168.015Q196.168 167.453 197.684 166.263Q199.245 165.038 199.437 162.79Q199.583 161.071 198.913 158.831Q198.442 157.256 197.621 155.576Q197.21 154.734 196.888 154.201L196.865 154.161L196.835 154.127ZM185.219 166.05Q186.142 166.654 187.519 167.038Q189.008 167.452 190.601 167.48Q192.364 167.511 193.944 167.054Q195.703 166.546 197.067 165.476Q198.286 164.52 198.44 162.705Q198.57 161.175 197.955 159.117Q197.508 157.622 196.722 156.015Q196.346 155.245 196.056 154.757Q195.948 154.64 195.755 154.466Q195.302 154.057 194.772 153.715Q193.088 152.632 191.287 152.632Q190.036 152.632 189.233 152.742Q188.307 152.87 187.65 153.179Q186.95 153.507 186.422 154.101Q185.852 154.742 185.403 155.773Q184.898 156.934 184.523 158.432Q184.111 160.074 184.005 161.562Q183.887 163.222 184.179 164.366Q184.486 165.57 185.219 166.05Z"
			fill-rule="evenodd" fill="#E3AE98">
		</path>
		<path stroke="rgba(24, 35, 61, 1)" stroke-width="1" stroke-linecap="round"
			d="M188.152 155.062C190.574 156.73 193.352 156.247 193.352 156.247">
		</path>
		<path stroke="rgba(24, 35, 61, 1)" stroke-width="1" stroke-linecap="round" d="M208.962 139.731L211.812 136.771">
		</path>
		<path
			d="M208.393 141.612C208.393 141.612 208.897 130.511 207.901 126.588C206.906 122.666 213.032 126.297 213.032 126.297C213.032 126.297 211.769 132.151 210.751 135.19C209.733 138.23 208.393 141.612 208.393 141.612Z"
			fill="#CA7856">
		</path>
		<path stroke="rgba(24, 35, 61, 1)" stroke-width="1" stroke-linecap="round"
			d="M191.012 152.163C191.012 152.163 194.962 152.596 194.962 150.877C194.962 149.157 192.225 146.809 191.782 138.771">
		</path>
		<path
			d="M215.212 123.637C215.212 118.48 210.027 116.95 210.027 116.95C210.027 116.95 213.487 111.735 208.407 109.79C203.327 107.846 181.532 105.187 178.414 113.919C166.871 110.284 169.358 129.917 170.394 134.049C171.43 138.181 173.668 142.172 173.668 142.172C173.668 142.172 174.566 133.064 177.541 131.43C180.516 129.797 179.813 121.948 179.813 121.948C179.813 121.948 185.22 129.803 194.956 129.803C204.693 129.803 215.212 128.794 215.212 123.637Z"
			fill="#E3AE98">
		</path>
		<path stroke="rgba(24, 35, 61, 1)" stroke-width="1" stroke-linecap="round"
			d="M178.412 116.952C178.412 118.374 179.812 121.952 179.812 121.952">
		</path>
		<path
			d="M179.382 128.979C175.732 129.021 172.437 127.018 169.497 122.972C169.21 127.464 169.941 132.234 170.394 134.041C171.084 136.794 172.175 139.502 173.668 142.162C174.266 136.091 175.557 132.511 177.54 131.423C178.368 130.969 178.982 130.154 179.382 128.979Z"
			fill="#CA7856">
		</path>
		<path stroke="rgba(24, 35, 61, 1)" stroke-width="1" stroke-linecap="round"
			d="M190.252 114.102C194.407 114.102 210.032 116.942 210.032 116.942">
		</path>
		<path stroke="rgba(24, 35, 61, 1)" stroke-width="1" stroke-linecap="round"
			d="M189.282 163.467C191.213 163.002 192.322 164.812 192.322 164.812">
		</path>
		<path
			d="M187.192 134.682C187.192 136.775 184.634 135.345 182.639 135.345C180.645 135.345 179.575 135.823 179.001 134.682C178.427 133.541 181.569 132.755 183.097 132.755C184.624 132.755 187.192 132.588 187.192 134.682Z"
			fill="#CA7856">
		</path>
		<path
			d="M196.172 134.902C196.172 136.995 198.73 135.565 200.725 135.565C202.719 135.565 203.789 136.043 204.363 134.902C204.937 133.761 201.795 132.975 200.267 132.975C198.74 132.975 196.172 132.808 196.172 134.902Z"
			fill="#CA7856">
		</path>
		<path
			d="M183.797 140.242C183.253 140.242 182.812 139.798 182.812 139.252C182.812 138.705 183.253 138.262 183.797 138.262C184.341 138.262 184.782 138.705 184.782 139.252C184.782 139.798 184.341 140.242 183.797 140.242Z"
			fill="#18233D">
		</path>
		<path
			d="M199.517 140.242C198.973 140.242 198.532 139.798 198.532 139.252C198.532 138.705 198.973 138.262 199.517 138.262C200.061 138.262 200.502 138.705 200.502 139.252C200.502 139.798 200.061 140.242 199.517 140.242Z"
			fill="#18233D">
		</path>
		<path
			d="M191.952 134.036C169.654 133.646 151.641 129.715 151.719 125.256C151.797 120.797 169.935 117.498 192.234 117.889C214.531 118.279 232.544 122.21 232.467 126.669C232.389 131.128 214.25 134.426 191.952 134.036Z"
			fill="#FFC982">
		</path>
		<path stroke="rgba(24, 35, 61, 1)" stroke-width="1" stroke-linecap="round" d="M220.705 124.493L212.562 121.72">
		</path>
		<path
			d="M213.464 122.748C213.464 122.748 209.753 98.8878 196.761 97.2925C183.769 95.6973 172.128 99.2396 168.015 122.911C189.784 131.958 213.464 122.748 213.464 122.748Z"
			fill="#FFC982">
		</path>
		<path stroke="rgba(24, 35, 61, 1)" stroke-width="1" stroke-linecap="round" d="M162.162 124.056L168.043 122.601">
		</path>
		<path
			d="M212.363 115.026C212.363 115.026 203.922 117.638 192.747 117.48C181.573 117.322 169.503 114.626 169.503 114.626C169.503 114.626 168.018 119.605 167.625 122.804C173.009 125.064 178.344 126.048 191.773 125.921C205.201 125.794 213.997 122.588 213.997 122.588L212.363 115.026Z"
			fill="#FFFFFF">
		</path>
		<path stroke="rgba(24, 35, 61, 1)" stroke-width="1" stroke-linecap="round" d="M191.602 244.922L191.012 195.782">
		</path>
		<path
			d="M187.267 203.052C186.265 203.052 185.452 202.239 185.452 201.237C185.452 200.234 186.265 199.422 187.267 199.422C188.27 199.422 189.082 200.234 189.082 201.237C189.082 202.239 188.27 203.052 187.267 203.052Z"
			fill="#18233D">
		</path>
		<path
			d="M187.267 223.392C186.265 223.392 185.452 222.579 185.452 221.577C185.452 220.574 186.265 219.762 187.267 219.762C188.27 219.762 189.082 220.574 189.082 221.577C189.082 222.579 188.27 223.392 187.267 223.392Z"
			fill="#18233D">
		</path>
		<path
			d="M187.267 243.002C186.265 243.002 185.452 242.189 185.452 241.187C185.452 240.184 186.265 239.372 187.267 239.372C188.27 239.372 189.082 240.184 189.082 241.187C189.082 242.189 188.27 243.002 187.267 243.002Z"
			fill="#18233D">
		</path>
		<path
			d="M163.029 182.882L155.745 184.933L150.954 244.719L139.982 252.177L139.982 492.362L174.509 492.362L192.285 368.279L213.544 492.362L245.792 492.362L234.346 250.583L227.162 244.719L225.478 184.933L217.191 182.882L218.909 241.748L160.142 241.748L163.029 182.882Z"
			fill="#0ACC94">
		</path>
		<path stroke="rgba(24, 35, 61, 1)" stroke-width="1" stroke-linecap="round" d="M185.422 364.092L198.575 372.812">
		</path>
		<path stroke="rgba(255, 255, 255, 1)" stroke-width="1" d="M242.632 479.942L232.412 248.232">
		</path>
		<path fill="rgba(255, 255, 255, 1)"
			d="M158.333 251.002L158.333 272.052C158.333 288.234 171.451 301.352 187.633 301.352C203.814 301.352 216.933 288.234 216.933 272.052L216.933 251.002L217.433 251.002L217.433 251.502L157.833 251.502L157.833 251.002L158.333 251.002ZM157.333 250.502L217.933 250.502L217.933 272.052C217.933 288.786 204.367 302.352 187.633 302.352C170.898 302.352 157.333 288.786 157.333 272.052L157.333 251.002L157.333 250.502Z">
		</path>
		<path d="M254.162 241.545C254.162 241.545 241.621 235.667 232.112 240.541L239.453 244.012L254.162 241.545Z"
			fill="#18233D">
		</path>
		<path stroke="rgba(24, 35, 61, 1)" stroke-width="1" stroke-linecap="round"
			d="M201.525 242.94C201.525 242.94 195.99 223.624 193.028 222.676C190.065 221.729 192.61 229.942 191.638 232.413">
		</path>
		<path
			d="M207.979 249.165C207.979 249.165 203.201 242.335 201.587 239.458C197.235 231.7 195.206 227.279 193.49 227.218C189.962 227.094 192.5 254.439 195.127 262.628C197.755 270.816 209.315 267.561 209.315 267.561L207.979 249.165Z"
			stroke="rgba(24, 35, 61, 1)" stroke-width="1" stroke-linecap="round" fill="#FFFFFF">
		</path>
		<path stroke="rgba(24, 35, 61, 1)" stroke-width="1" stroke-linecap="round"
			d="M191.583 233.92C194.364 233.453 198.348 248.214 198.348 248.214">
		</path>
		<path stroke="rgba(24, 35, 61, 1)" stroke-width="1" stroke-linecap="round"
			d="M242.333 243.008L207.062 247.61L209.299 268.6L285.503 266.202">
		</path>
		<path stroke="rgba(24, 35, 61, 1)" stroke-width="1" stroke-linecap="round" d="M226.638 268.245L226.33 244.01">
		</path>
		<path
			d="M220.118 251.373C219.15 251.113 218.575 250.118 218.834 249.15C219.094 248.182 220.089 247.607 221.057 247.867C222.026 248.126 222.6 249.121 222.341 250.09C222.081 251.058 221.086 251.632 220.118 251.373Z"
			fill="#18233D">
		</path>
		<path stroke="rgba(24, 35, 61, 1)" stroke-width="1" stroke-linecap="round"
			d="M180.415 242.937C180.415 242.937 185.949 223.621 188.912 222.673C191.875 221.725 189.33 229.939 190.301 232.41">
		</path>
		<path
			d="M174.131 249.16C174.131 249.16 178.484 245.162 180.087 242.3C184.461 234.494 187.378 227.219 189.099 227.159C191.643 227.158 190.644 229.656 190.698 233.428C190.818 241.994 188.806 256.939 186.982 262.625C184.355 270.814 172.794 267.558 172.794 267.558L174.131 249.16Z"
			stroke="rgba(24, 35, 61, 1)" stroke-width="1" stroke-linecap="round" fill="#FFFFFF">
		</path>
		<path stroke="rgba(24, 35, 61, 1)" stroke-width="1" stroke-linecap="round"
			d="M190.458 233.911C187.677 233.443 183.693 248.204 183.693 248.204">
		</path>
		<path stroke="rgba(24, 35, 61, 1)" stroke-width="1" stroke-linecap="round"
			d="M133.453 239.487L175.333 247.721L173.097 268.713L96.8919 266.313">
		</path>
		<path stroke="rgba(24, 35, 61, 1)" stroke-width="1" stroke-linecap="round" d="M155.396 268.248L155.704 244.013">
		</path>
		<path
			d="M161.914 251.366C162.882 251.106 163.457 250.111 163.197 249.143C162.938 248.175 161.943 247.6 160.974 247.86C160.006 248.119 159.432 249.114 159.691 250.083C159.95 251.051 160.946 251.625 161.914 251.366Z"
			fill="#18233D">
		</path>
		<path
			d="M144.242 241.959C144.242 241.959 140.673 235.561 134.473 233.239C128.272 230.918 119.389 237.22 119.389 237.22L144.242 241.959Z"
			fill="#18233D">
		</path>
		<path
			d="M141.506 491.642L139.137 546.852C139.137 546.852 114.702 562.358 114.702 567.678C114.702 572.997 142.714 567.678 147.546 567.678C150.509 567.678 161.206 567.572 165.969 565.879C168.973 564.81 167.064 557.987 167.628 554.699C168.973 546.852 173.752 491.642 173.752 491.642L141.506 491.642Z"
			fill="#18233D">
		</path>
		<path stroke="rgba(255, 255, 255, 1)" stroke-width="1" stroke-linecap="round" d="M139.132 546.847L151.512 546.847">
		</path>
		<path d="M191.812 368.782L166.882 492.362L174.676 492.362L191.812 368.782Z" fill="#18233D">
		</path>
		<path
			d="M177.561 477.292C173.069 477.292 140.979 477.292 138.212 477.292C135.445 477.292 138.212 482.263 138.212 487.314C138.212 492.364 134.809 493.942 143.956 493.942C153.103 493.942 173.121 493.942 175.878 493.942C178.635 493.942 176.211 489.266 177.561 485.617C178.911 481.967 182.053 477.292 177.561 477.292Z"
			fill="#57E4BB">
		</path>
		<path
			d="M245.068 491.642L247.437 546.852C247.437 546.852 271.872 562.358 271.872 567.678C271.872 572.997 243.86 567.678 239.029 567.678C236.066 567.678 225.369 567.572 220.606 565.879C217.602 564.81 219.51 557.987 218.946 554.699C217.602 546.852 212.822 491.642 212.822 491.642L245.068 491.642Z"
			fill="#18233D">
		</path>
		<path stroke="rgba(255, 255, 255, 1)" stroke-width="1" stroke-linecap="round" d="M235.282 546.987L247.662 546.987">
		</path>
		<path
			d="M248.061 477.292C243.569 477.292 211.479 477.292 208.712 477.292C205.945 477.292 208.712 482.263 208.712 487.314C208.712 492.364 205.309 493.942 214.456 493.942C223.603 493.942 243.621 493.942 246.378 493.942C249.135 493.942 246.711 489.266 248.061 485.617C249.411 481.967 252.553 477.292 248.061 477.292Z"
			fill="#57E4BB">
		</path>
	</g>
	<g mask="url(#mask-3ZEb26am0k)">
		<path
			d="M303.202 553.205C303.202 553.205 295.857 562.063 287.541 566.715C279.225 571.366 294.366 572.935 304.694 568.005C315.021 563.075 313.588 562.495 316.13 562.001C316.913 561.849 318.115 564.695 318.115 564.695L324.046 563.543C324.046 563.543 324.209 558.47 325.431 554.828C328.444 545.852 320.036 542.925 320.036 542.925L303.202 553.205Z"
			fill="#18233D">
		</path>
		<path
			d="M306.765 543.44C305.505 557 293.297 560.712 296.892 561.961C300.487 563.211 314.392 557.34 320.509 552.206C326.626 547.074 322.647 550.411 322.647 536.662C322.647 522.914 328.901 491.007 328.57 459.045C328.57 445.02 303.411 449.704 303.411 449.704C303.411 449.704 308.025 529.881 306.765 543.44Z"
			stroke="rgba(24, 35, 61, 1)" stroke-width="1" stroke-linecap="round" fill="#FFFFFF">
		</path>
		<path stroke="rgba(24, 35, 61, 1)" stroke-width="1" stroke-linecap="round"
			d="M319.882 549.832C321.722 547.621 319.882 542.972 319.882 542.972">
		</path>
		<path
			d="M372.303 553.205C372.303 553.205 379.648 562.063 387.964 566.715C396.28 571.366 381.139 572.935 370.811 568.005C360.484 563.075 361.917 562.495 359.375 562.001C358.592 561.849 357.39 564.695 357.39 564.695L351.459 563.543C351.459 563.543 351.296 558.47 350.074 554.828C347.061 545.852 355.469 542.925 355.469 542.925L372.303 553.205Z"
			fill="#18233D">
		</path>
		<path
			d="M368.74 543.44C370 557 382.207 560.712 378.612 561.961C375.018 563.211 361.113 557.34 354.996 552.206C348.879 547.074 352.858 550.411 352.858 536.662C352.858 522.914 346.604 491.007 346.935 459.045C346.935 445.02 372.094 449.704 372.094 449.704C372.094 449.704 367.479 529.881 368.74 543.44Z"
			stroke="rgba(24, 35, 61, 1)" stroke-width="1" stroke-linecap="round" fill="#FFFFFF">
		</path>
		<path stroke="rgba(24, 35, 61, 1)" stroke-width="1" stroke-linecap="round"
			d="M355.692 549.832C353.852 547.621 355.692 542.972 355.692 542.972">
		</path>
		<path
			d="M299.5 276.287C299.5 276.287 263.253 406.127 257.692 464.274C257.692 464.274 282.01 484.672 340.193 484.672C398.376 484.672 435.052 464.274 435.052 464.274C435.052 464.274 394.999 316.37 364.445 275.477C333.892 234.584 299.5 276.287 299.5 276.287Z"
			fill="#57E4BB">
		</path>
		<path
			d="M302.554 276.279C302.554 276.279 273.272 383.587 267.223 432.595C267.223 432.595 295.692 445.022 327.345 445.022C358.996 445.022 397.363 438.189 397.363 438.189C397.363 438.189 366.703 302.516 352.887 276.279C339.072 250.044 302.554 276.279 302.554 276.279Z"
			fill="#FFFFFF">
		</path>
		<path
			d="M336.607 192.882C336.607 192.882 365.265 197.058 372.852 204.356L364.44 258.772L364.44 276.292L299.494 276.292L304.315 243.987C304.315 243.987 294.453 240.783 297.819 224.264C301.186 207.744 302.556 198.472 302.556 198.472L336.607 192.882Z"
			fill="#0ACC94">
		</path>
		<path
			d="M310.463 160.702L299.493 159.439C299.493 159.439 303.526 146.09 314.882 137.305C326.238 128.521 310.463 160.702 310.463 160.702Z"
			fill="#0ACC94">
		</path>
		<path
			d="M332.527 190.688C348.251 190.688 353.758 195.238 361.195 188.589C368.631 181.94 361.829 142.575 355.13 131.982C348.432 121.389 312.728 143.226 312.728 143.226C312.728 143.226 298.185 180.363 304.427 188.589C310.669 196.815 316.804 190.688 332.527 190.688Z"
			fill="#CA7856">
		</path>
		<path
			d="M327.354 187.26C327.354 190.318 324.535 195.024 324.535 195.024C324.535 195.024 318.075 195.867 318.994 198.493C320.436 202.615 323.222 211.427 330.123 213.818C330.987 214.119 329.307 224.865 330.306 224.942C331.148 225.006 334.571 214.426 335.358 214.313C342.944 213.223 347.895 204.516 349.976 200.314C352.274 195.677 346.05 195.024 346.05 195.024L347.484 175.492C347.484 175.492 351.15 170.384 352.274 158.991C352.274 158.991 356.184 157.992 356.697 153.279C357.21 148.566 354.032 148.566 354.032 148.566L349.976 135.592L315.002 135.592L315.505 148.003C315.505 148.003 312.165 147.085 312.85 153.804C313.53 157.84 317.381 158.991 317.381 158.991C317.381 158.991 319.919 176.236 327.354 179.282C327.354 179.282 327.354 183.765 327.354 187.26Z"
			stroke="rgba(24, 35, 61, 1)" stroke-width="1" stroke-linecap="round" fill="#FFFFFF">
		</path>
		<path stroke="rgba(24, 35, 61, 1)" stroke-width="1" stroke-linecap="round" d="M355.143 153.282L352.893 154.762">
		</path>
		<path
			d="M332.903 180.929C332.903 180.929 338.584 187.262 346.295 187.262L347.463 174.832C347.463 174.832 345.109 178.396 341.101 179.836C337.094 181.276 332.903 180.929 332.903 180.929Z"
			fill="#18233D">
		</path>
		<path stroke="rgba(24, 35, 61, 1)" stroke-width="1" stroke-linecap="round"
			d="M337.733 170.102C335.311 171.77 332.533 171.287 332.533 171.287">
		</path>
		<path stroke="rgba(24, 35, 61, 1)" stroke-width="1" stroke-linecap="round" d="M317.303 156.282L314.763 153.439">
		</path>
		<path stroke="rgba(24, 35, 61, 1)" stroke-width="1" stroke-linecap="round"
			d="M333.873 164.318C333.873 164.318 331.943 164.529 331.943 163.692C331.943 162.855 333.28 161.713 333.497 157.802">
		</path>
		<path
			d="M359.002 149.54C359.002 149.54 352.836 151.503 346.951 149.54C341.067 147.577 337.734 137.691 337.734 137.691C337.734 137.691 325.595 151.801 315.859 151.801C312.113 152.036 308.772 148.38 308.772 143.223C308.772 138.067 315.859 131.979 315.859 131.979C315.859 131.979 338.973 117.599 342.091 126.33C355.917 121.769 359.215 140.393 358.179 144.525C357.143 148.657 359.002 149.54 359.002 149.54Z"
			fill="#E3AE98">
		</path>
		<path
			d="M317.292 131.291C317.292 131.291 352.616 125.93 362.941 160.702L372.842 158.931C367.632 111.293 336.762 116.043 328.67 120.997C320.579 125.95 317.292 131.291 317.292 131.291Z"
			fill="#0ACC94">
		</path>
		<path stroke="rgba(24, 35, 61, 1)" stroke-width="1" stroke-linecap="round"
			d="M339.773 132.312C339.773 133.735 338.373 137.312 338.373 137.312">
		</path>
		<path
			d="M338.292 150.121C338.292 152.105 340.544 150.749 342.3 150.749C344.055 150.749 344.997 151.203 345.502 150.121C346.007 149.039 343.241 148.295 341.897 148.295C340.553 148.295 338.292 148.137 338.292 150.121Z"
			fill="#CA7856">
		</path>
		<path
			d="M330.292 150.121C330.292 152.105 328.04 150.749 326.285 150.749C324.53 150.749 323.588 151.203 323.083 150.121C322.578 149.039 325.344 148.295 326.688 148.295C328.032 148.295 330.292 148.137 330.292 150.121Z"
			fill="#CA7856">
		</path>
		<path
			d="M342.088 155.272C342.632 155.272 343.073 154.828 343.073 154.282C343.073 153.735 342.632 153.292 342.088 153.292C341.544 153.292 341.103 153.735 341.103 154.282C341.103 154.828 341.544 155.272 342.088 155.272Z"
			fill="#18233D">
		</path>
		<path
			d="M326.368 155.272C326.912 155.272 327.353 154.828 327.353 154.282C327.353 153.735 326.912 153.292 326.368 153.292C325.824 153.292 325.383 153.735 325.383 154.282C325.383 154.828 325.824 155.272 326.368 155.272Z"
			fill="#18233D">
		</path>
		<path stroke="rgba(255, 255, 255, 1)" stroke-width="1"
			d="M366.762 238.192C366.762 238.192 361.797 252.889 362.702 276.288C377.381 299.966 429.092 467.302 429.092 467.302">
		</path>
		<path
			d="M303.013 198.472C303.013 198.472 289.344 203.094 283.863 214.438C278.383 225.781 261.513 266.424 261.513 277.877C261.513 289.331 274.513 294.966 282.263 291.798C290.013 288.631 300.14 231.491 300.14 231.491L303.013 198.472Z"
			fill="#57E4BB">
		</path>
		<path
			d="M268.334 266.852C268.334 266.852 260.123 267.093 260.123 276.279C260.123 285.465 266.341 291.511 273.77 292.658C281.199 293.805 289.27 293.282 290.904 281.526C292.537 269.771 268.334 266.852 268.334 266.852Z"
			fill="#0ACC94">
		</path>
		<path
			d="M272.054 255.015L324.551 232.732L354.398 303.048C354.398 303.048 356.316 312.914 331.991 323.239C307.667 333.565 301.902 325.332 301.902 325.332L272.054 255.015Z"
			stroke="rgba(24, 35, 61, 1)" stroke-width="1" stroke-linecap="round" fill="#FFFFFF">
		</path>
		<path
			d="M304.216 271.844C304.216 271.844 315.653 270.807 323.266 265.483C330.878 260.159 332.435 258.706 332.435 258.706L344.006 285.403C344.006 285.403 338.82 291.664 331.464 294.576C324.108 297.487 314.775 296.834 314.775 296.834L304.216 271.844Z"
			stroke="rgba(24, 35, 61, 1)" stroke-width="1" stroke-linecap="round" fill="#FFFFFF">
		</path>
		<path
			d="M301.705 251.891C323.276 242.735 326.005 236.16 324.551 232.732C323.096 229.306 310.165 231.516 295.669 237.669C281.172 243.823 270.6 251.589 272.054 255.016C273.509 258.443 280.135 261.047 301.705 251.891Z"
			fill="#E5E9F3">
		</path>
		<path d="M324.332 232.216L312.512 225.034L275.814 240.611L271.835 254.5L324.332 232.216Z" fill="#E5E9F3">
		</path>
		<path
			d="M272.917 233.911L309.82 218.246L313.068 225.9C313.068 225.9 314.395 232.784 297.295 240.042C280.196 247.301 276.165 241.564 276.165 241.564L272.917 233.911Z"
			stroke="rgba(24, 35, 61, 1)" stroke-width="1" stroke-linecap="round" fill="#FFFFFF">
		</path>
		<path
			d="M293.341 230.727C303.532 226.401 310.957 220.927 309.927 218.499C308.897 216.072 299.8 217.61 289.61 221.936C279.419 226.262 271.994 231.736 273.024 234.164C274.054 236.591 283.151 235.052 293.341 230.727Z"
			fill="#4964A3">
		</path>
		<path fill="#FFC982"
			d="M267.151 267.711L267.151 267.711C267.928 267.779 268.612 267.196 268.68 266.419L272.198 227.237C272.266 226.46 271.693 225.777 270.916 225.709L270.916 225.709C270.139 225.641 269.456 226.224 269.388 227.001L265.869 266.183C265.801 266.96 266.374 267.643 267.151 267.711Z">
		</path>
		<path
			d="M266.283 225.526L308.387 207.654L312.971 218.454C312.971 218.454 314.781 224.679 295.271 232.96C275.762 241.241 270.867 236.326 270.867 236.326L266.283 225.526Z"
			stroke="rgba(24, 35, 61, 1)" stroke-width="1" stroke-linecap="round" fill="#FFFFFF">
		</path>
		<path
			d="M289.449 221.57C301.075 216.635 309.553 210.402 308.385 207.649C307.216 204.896 296.844 206.666 285.217 211.601C273.59 216.536 265.112 222.768 266.281 225.521C267.449 228.274 277.822 226.505 289.449 221.57Z"
			fill="#E5E9F3">
		</path>
		<path fill="#18233D"
			d="M272.806 270.987L296.269 267.241C299.171 266.771 301.149 264.048 300.699 261.143L300.699 261.143C300.239 258.239 297.516 256.26 294.612 256.72L271.15 260.467C268.247 260.937 266.269 263.66 266.719 266.565L266.719 266.565C267.179 269.469 269.902 271.447 272.806 270.987Z">
		</path>
		<path
			d="M297.628 266.137C299.923 265.163 300.997 262.52 300.027 260.235C299.057 257.95 296.41 256.887 294.115 257.862C291.82 258.836 290.745 261.478 291.715 263.763C292.685 266.049 295.332 267.111 297.628 266.137Z"
			fill="#4964A3">
		</path>
		<path fill="#FFC982"
			d="M295.927 263.319L295.927 263.319C296.702 263.414 297.404 262.866 297.499 262.092L302.385 223.036C302.49 222.263 301.933 221.55 301.157 221.465L301.157 221.465C300.383 221.369 299.681 221.918 299.586 222.692L294.7 261.748C294.595 262.521 295.152 263.234 295.927 263.319Z">
		</path>
		<path
			d="M263.513 280.441C263.513 276.673 266.056 273.242 274.837 273.242C283.618 273.242 317.236 288.158 322.744 289.471C328.253 290.784 334.917 291.043 334.917 291.043C334.917 291.043 341.717 285.964 344.353 284.764C346.99 283.563 350.147 282.14 350.147 283.452C350.147 284.764 345.062 289.245 345.062 290.038C345.062 290.831 349.754 288.876 351.517 287.142C352.295 286.377 353.008 286.829 353.1 288.612C353.145 289.481 352.684 290.601 352.585 291.74C352.512 292.585 353.085 293.438 353.1 294.207C353.118 295.094 352.585 295.869 352.585 296.379C352.701 297.17 354.072 296.521 353.507 298.884C352.941 301.248 336.549 302.302 332.401 302.302C328.253 302.302 282.834 295.746 274.837 292.892C266.839 290.038 263.513 284.209 263.513 280.441Z"
			stroke="rgba(24, 35, 61, 1)" stroke-width="1" stroke-linecap="round" fill="#FFFFFF">
		</path>
		<path stroke="rgba(24, 35, 61, 1)" stroke-width="1" stroke-linecap="round" d="M349.752 291.932L352.492 290.262">
		</path>
		<path stroke="rgba(24, 35, 61, 1)" stroke-width="1" stroke-linecap="round" d="M350.002 294.532L352.742 292.862">
		</path>
		<path stroke="rgba(24, 35, 61, 1)" stroke-width="1" stroke-linecap="round" d="M350.002 297.942L352.912 296.235">
		</path>
		<path
			d="M325.966 320.29C322.782 318.571 327.794 317.428 329.666 318.232C331.538 319.036 336.958 317.678 338.912 317.078C340.866 316.479 345.658 316.157 345.658 316.157C345.658 316.157 355.574 309.652 354.417 303.056L353.24 300.256C357.624 296.69 373.764 277.514 373.764 277.514L373.764 274.896L393.583 271.832L393.583 278.984C393.321 289.817 370.047 304.117 355.803 313.205C351.458 315.978 349.53 320.266 344.583 322.862C339.589 325.874 327.039 327.542 321.263 327.542L333.042 322.862C333.042 322.862 329.15 322.009 325.966 320.29Z"
			stroke="rgba(24, 35, 61, 1)" stroke-width="1" stroke-linecap="round" fill="#FFFFFF">
		</path>
		<path
			d="M373.763 277.512C373.763 277.512 377.663 277.297 380.491 276.286C383.318 275.274 385.693 273.244 385.693 273.244C385.693 273.244 379.407 272.376 376.585 268.552C373.763 264.728 373.763 277.512 373.763 277.512Z"
			fill="#18233D">
		</path>
		<path
			d="M368.673 201.302C368.673 201.302 382.42 209.897 385.317 218.252C388.214 226.606 395.687 264.881 397.363 271.834L372.145 276.292L366.763 242.062L368.673 201.302Z"
			fill="#57E4BB">
		</path>
		<path
			d="M369.323 264.347C372.856 263.723 389.787 260.986 393.577 260.268C397.368 259.55 395.966 262.618 396.53 265.095C397.094 267.572 399.974 271.06 398.534 271.824C397.094 272.589 373.471 276.282 371.397 276.282C369.323 276.282 370.206 273.817 370.206 270.744C370.206 267.671 365.79 264.972 369.323 264.347Z"
			fill="#0ACC94">
		</path>
	</g>
	<path
		d="M491.092 277.172C491.092 277.172 485.529 271.757 480.599 270.855C475.669 269.952 467.366 277.664 464.222 279.035C475.985 281.388 477.325 281.692 481.163 281.692C485.002 281.692 491.092 277.172 491.092 277.172Z"
		fill="#CA7856">
	</path>
	<path
		d="M479.211 238.699C481.183 238.352 482.495 236.445 482.141 234.441C481.787 232.437 479.464 227.617 477.492 227.964C475.52 228.312 474.647 233.694 475.001 235.699C475.355 237.703 477.24 239.046 479.211 238.699Z"
		fill="#0ACC94">
	</path>
	<path stroke="rgba(24, 35, 61, 1)" stroke-width="1" stroke-linecap="round" d="M479.167 234.932L479.167 273.672">
	</path>
	<path
		d="M484.242 258.2C486.013 260.309 489.135 260.604 491.215 258.859C493.296 257.115 497.276 251.174 495.506 249.066C493.735 246.957 486.884 249.48 484.804 251.224C482.723 252.969 482.472 256.092 484.242 258.2Z"
		fill="#0ACC94">
	</path>
	<path
		d="M482.392 241.4C484.163 243.509 487.285 243.804 489.365 242.06C491.445 240.315 495.426 234.374 493.656 232.266C491.885 230.157 485.034 232.68 482.953 234.425C480.873 236.169 480.622 239.292 482.392 241.4Z"
		fill="#0ACC94">
	</path>
	<path
		d="M476.624 247.162C478.243 244.935 477.774 241.837 475.577 240.242C473.38 238.647 466.648 236.225 465.029 238.451C463.41 240.678 467.517 246.71 469.714 248.305C471.911 249.9 475.005 249.388 476.624 247.162Z"
		fill="#0ACC94">
	</path>
	<path
		d="M475.861 266.052C478.08 263.674 477.967 259.964 475.608 257.766C473.249 255.568 465.673 251.73 463.453 254.108C461.234 256.487 465.212 264.18 467.571 266.378C469.93 268.576 473.642 268.43 475.861 266.052Z"
		fill="#0ACC94">
	</path>
	<path stroke="rgba(24, 35, 61, 1)" stroke-width="1" stroke-linecap="round" d="M490.192 252.922L479.172 261.632">
	</path>
	<path stroke="rgba(24, 35, 61, 1)" stroke-width="1" stroke-linecap="round" d="M468.803 258.627L480.082 268.332">
	</path>
	<path stroke="rgba(24, 35, 61, 1)" stroke-width="1" stroke-linecap="round" d="M486.422 237.777L479.172 243.862">
	</path>
	<path stroke="rgba(24, 35, 61, 1)" stroke-width="1" stroke-linecap="round" d="M473.314 243.672L479.192 250.012">
	</path>
	<path
		d="M557.092 289.172C557.092 289.172 551.529 283.757 546.599 282.855C541.669 281.952 533.366 289.664 530.222 291.035C541.985 293.388 543.325 293.692 547.163 293.692C551.002 293.692 557.092 289.172 557.092 289.172Z"
		fill="#CA7856">
	</path>
	<path
		d="M545.211 250.699C547.183 250.352 548.495 248.445 548.141 246.441C547.787 244.437 545.464 239.617 543.492 239.964C541.52 240.312 540.647 245.694 541.001 247.699C541.355 249.703 543.24 251.046 545.211 250.699Z"
		fill="#0ACC94">
	</path>
	<path stroke="rgba(24, 35, 61, 1)" stroke-width="1" stroke-linecap="round" d="M545.167 246.932L545.167 285.672">
	</path>
	<path
		d="M550.242 270.2C552.013 272.309 555.135 272.604 557.215 270.859C559.296 269.115 563.276 263.174 561.506 261.066C559.735 258.957 552.884 261.48 550.804 263.224C548.723 264.969 548.472 268.092 550.242 270.2Z"
		fill="#0ACC94">
	</path>
	<path
		d="M548.392 253.4C550.163 255.509 553.285 255.804 555.365 254.06C557.445 252.315 561.426 246.374 559.656 244.266C557.885 242.157 551.034 244.68 548.953 246.425C546.873 248.169 546.622 251.292 548.392 253.4Z"
		fill="#0ACC94">
	</path>
	<path
		d="M542.624 259.162C544.243 256.935 543.774 253.837 541.577 252.242C539.38 250.647 532.648 248.225 531.029 250.451C529.41 252.678 533.517 258.71 535.714 260.305C537.911 261.9 541.005 261.388 542.624 259.162Z"
		fill="#0ACC94">
	</path>
	<path
		d="M541.861 278.052C544.08 275.674 543.967 271.964 541.608 269.766C539.249 267.568 531.673 263.73 529.453 266.108C527.234 268.487 531.212 276.18 533.571 278.378C535.93 280.576 539.642 280.43 541.861 278.052Z"
		fill="#0ACC94">
	</path>
	<path stroke="rgba(24, 35, 61, 1)" stroke-width="1" stroke-linecap="round" d="M556.192 264.922L545.172 273.632">
	</path>
	<path stroke="rgba(24, 35, 61, 1)" stroke-width="1" stroke-linecap="round" d="M534.803 270.627L546.082 280.332">
	</path>
	<path stroke="rgba(24, 35, 61, 1)" stroke-width="1" stroke-linecap="round" d="M552.422 249.777L545.172 255.862">
	</path>
	<path stroke="rgba(24, 35, 61, 1)" stroke-width="1" stroke-linecap="round" d="M539.314 255.672L545.192 262.012">
	</path>
	<path
		d="M436.092 277.172C436.092 277.172 430.529 271.757 425.599 270.855C420.669 269.952 412.366 277.664 409.222 279.035C420.985 281.388 422.325 281.692 426.163 281.692C430.002 281.692 436.092 277.172 436.092 277.172Z"
		fill="#CA7856">
	</path>
	<path
		d="M424.211 238.699C426.183 238.352 427.495 236.445 427.141 234.441C426.787 232.437 424.464 227.617 422.492 227.964C420.52 228.312 419.647 233.694 420.001 235.699C420.355 237.703 422.24 239.046 424.211 238.699Z"
		fill="#0ACC94">
	</path>
	<path stroke="rgba(24, 35, 61, 1)" stroke-width="1" stroke-linecap="round" d="M424.167 234.932L424.167 273.672">
	</path>
	<path
		d="M429.242 258.2C431.013 260.309 434.135 260.604 436.215 258.859C438.296 257.115 442.276 251.174 440.506 249.066C438.735 246.957 431.884 249.48 429.804 251.224C427.723 252.969 427.472 256.092 429.242 258.2Z"
		fill="#0ACC94">
	</path>
	<path
		d="M427.392 241.4C429.163 243.509 432.285 243.804 434.365 242.06C436.445 240.315 440.426 234.374 438.656 232.266C436.885 230.157 430.034 232.68 427.953 234.425C425.873 236.169 425.622 239.292 427.392 241.4Z"
		fill="#0ACC94">
	</path>
	<path
		d="M421.624 247.162C423.243 244.935 422.774 241.837 420.577 240.242C418.38 238.647 411.648 236.225 410.029 238.451C408.41 240.678 412.517 246.71 414.714 248.305C416.911 249.9 420.005 249.388 421.624 247.162Z"
		fill="#0ACC94">
	</path>
	<path
		d="M420.861 266.052C423.08 263.674 422.967 259.964 420.608 257.766C418.249 255.568 410.673 251.73 408.453 254.108C406.234 256.487 410.212 264.18 412.571 266.378C414.93 268.576 418.642 268.43 420.861 266.052Z"
		fill="#0ACC94">
	</path>
	<path stroke="rgba(24, 35, 61, 1)" stroke-width="1" stroke-linecap="round" d="M435.192 252.922L424.172 261.632">
	</path>
	<path stroke="rgba(24, 35, 61, 1)" stroke-width="1" stroke-linecap="round" d="M413.803 258.627L425.082 268.332">
	</path>
	<path stroke="rgba(24, 35, 61, 1)" stroke-width="1" stroke-linecap="round" d="M431.422 237.777L424.172 243.862">
	</path>
	<path stroke="rgba(24, 35, 61, 1)" stroke-width="1" stroke-linecap="round" d="M418.314 243.672L424.192 250.012">
	</path>
	<path
		d="M436.092 277.172C436.092 277.172 430.529 271.757 425.599 270.855C420.669 269.952 412.366 277.664 409.222 279.035C420.985 281.388 422.325 281.692 426.163 281.692C430.002 281.692 436.092 277.172 436.092 277.172Z"
		fill="#CA7856">
	</path>
	<path
		d="M424.211 238.699C426.183 238.352 427.495 236.445 427.141 234.441C426.787 232.437 424.464 227.617 422.492 227.964C420.52 228.312 419.647 233.694 420.001 235.699C420.355 237.703 422.24 239.046 424.211 238.699Z"
		fill="#0ACC94">
	</path>
	<path stroke="rgba(24, 35, 61, 1)" stroke-width="1" stroke-linecap="round" d="M424.167 234.932L424.167 273.672">
	</path>
	<path
		d="M429.242 258.2C431.013 260.309 434.135 260.604 436.215 258.859C438.296 257.115 442.276 251.174 440.506 249.066C438.735 246.957 431.884 249.48 429.804 251.224C427.723 252.969 427.472 256.092 429.242 258.2Z"
		fill="#0ACC94">
	</path>
	<path
		d="M427.392 241.4C429.163 243.509 432.285 243.804 434.365 242.06C436.445 240.315 440.426 234.374 438.656 232.266C436.885 230.157 430.034 232.68 427.953 234.425C425.873 236.169 425.622 239.292 427.392 241.4Z"
		fill="#0ACC94">
	</path>
	<path
		d="M421.624 247.162C423.243 244.935 422.774 241.837 420.577 240.242C418.38 238.647 411.648 236.225 410.029 238.451C408.41 240.678 412.517 246.71 414.714 248.305C416.911 249.9 420.005 249.388 421.624 247.162Z"
		fill="#0ACC94">
	</path>
	<path
		d="M420.861 266.052C423.08 263.674 422.967 259.964 420.608 257.766C418.249 255.568 410.673 251.73 408.453 254.108C406.234 256.487 410.212 264.18 412.571 266.378C414.93 268.576 418.642 268.43 420.861 266.052Z"
		fill="#0ACC94">
	</path>
	<path stroke="rgba(24, 35, 61, 1)" stroke-width="1" stroke-linecap="round" d="M435.192 252.922L424.172 261.632">
	</path>
	<path stroke="rgba(24, 35, 61, 1)" stroke-width="1" stroke-linecap="round" d="M413.803 258.627L425.082 268.332">
	</path>
	<path stroke="rgba(24, 35, 61, 1)" stroke-width="1" stroke-linecap="round" d="M431.422 237.777L424.172 243.862">
	</path>
	<path stroke="rgba(24, 35, 61, 1)" stroke-width="1" stroke-linecap="round" d="M418.314 243.672L424.192 250.012">
	</path>
	<path
		d="M456.092 332.172C456.092 332.172 450.529 326.757 445.599 325.855C440.669 324.952 432.366 332.664 429.222 334.035C440.985 336.388 442.325 336.692 446.163 336.692C450.002 336.692 456.092 332.172 456.092 332.172Z"
		fill="#CA7856">
	</path>
	<path
		d="M444.211 293.699C446.183 293.352 447.495 291.445 447.141 289.441C446.787 287.436 444.464 282.617 442.492 282.964C440.52 283.312 439.647 288.694 440.001 290.699C440.355 292.703 442.24 294.046 444.211 293.699Z"
		fill="#0ACC94">
	</path>
	<path stroke="rgba(24, 35, 61, 1)" stroke-width="1" stroke-linecap="round" d="M444.167 289.932L444.167 328.672">
	</path>
	<path
		d="M449.242 313.2C451.013 315.309 454.135 315.604 456.215 313.859C458.296 312.115 462.276 306.174 460.506 304.066C458.735 301.957 451.884 304.48 449.804 306.224C447.723 307.969 447.472 311.092 449.242 313.2Z"
		fill="#0ACC94">
	</path>
	<path
		d="M447.392 296.4C449.163 298.509 452.285 298.804 454.365 297.06C456.445 295.315 460.426 289.374 458.656 287.266C456.885 285.157 450.034 287.68 447.953 289.425C445.873 291.169 445.622 294.292 447.392 296.4Z"
		fill="#0ACC94">
	</path>
	<path
		d="M441.624 302.162C443.243 299.935 442.774 296.837 440.577 295.242C438.38 293.647 431.648 291.225 430.029 293.451C428.41 295.678 432.517 301.71 434.714 303.305C436.911 304.9 440.005 304.388 441.624 302.162Z"
		fill="#0ACC94">
	</path>
	<path
		d="M440.861 321.052C443.08 318.674 442.967 314.964 440.608 312.766C438.249 310.568 430.673 306.73 428.453 309.108C426.234 311.487 430.212 319.18 432.571 321.378C434.93 323.576 438.642 323.43 440.861 321.052Z"
		fill="#0ACC94">
	</path>
	<path stroke="rgba(24, 35, 61, 1)" stroke-width="1" stroke-linecap="round" d="M455.192 307.922L444.172 316.632">
	</path>
	<path stroke="rgba(24, 35, 61, 1)" stroke-width="1" stroke-linecap="round" d="M433.803 313.627L445.082 323.332">
	</path>
	<path stroke="rgba(24, 35, 61, 1)" stroke-width="1" stroke-linecap="round" d="M451.422 292.777L444.172 298.862">
	</path>
	<path stroke="rgba(24, 35, 61, 1)" stroke-width="1" stroke-linecap="round" d="M438.314 298.672L444.192 305.012">
	</path>
	<path
		d="M517.092 332.172C517.092 332.172 511.529 326.757 506.599 325.855C501.669 324.952 493.366 332.664 490.222 334.035C501.985 336.388 503.325 336.692 507.163 336.692C511.002 336.692 517.092 332.172 517.092 332.172Z"
		fill="#CA7856">
	</path>
	<path
		d="M505.211 293.699C507.183 293.352 508.495 291.445 508.141 289.441C507.787 287.436 505.464 282.617 503.492 282.964C501.52 283.312 500.647 288.694 501.001 290.699C501.355 292.703 503.24 294.046 505.211 293.699Z"
		fill="#0ACC94">
	</path>
	<path stroke="rgba(24, 35, 61, 1)" stroke-width="1" stroke-linecap="round" d="M505.167 289.932L505.167 328.672">
	</path>
	<path
		d="M510.242 313.2C512.013 315.309 515.135 315.604 517.215 313.859C519.296 312.115 523.276 306.174 521.506 304.066C519.735 301.957 512.884 304.48 510.804 306.224C508.723 307.969 508.472 311.092 510.242 313.2Z"
		fill="#0ACC94">
	</path>
	<path
		d="M508.392 296.4C510.163 298.509 513.285 298.804 515.365 297.06C517.445 295.315 521.426 289.374 519.656 287.266C517.885 285.157 511.034 287.68 508.953 289.425C506.873 291.169 506.622 294.292 508.392 296.4Z"
		fill="#0ACC94">
	</path>
	<path
		d="M502.624 302.162C504.243 299.935 503.774 296.837 501.577 295.242C499.38 293.647 492.648 291.225 491.029 293.451C489.41 295.678 493.517 301.71 495.714 303.305C497.911 304.9 501.005 304.388 502.624 302.162Z"
		fill="#0ACC94">
	</path>
	<path
		d="M501.861 321.052C504.08 318.674 503.967 314.964 501.608 312.766C499.249 310.568 491.673 306.73 489.453 309.108C487.234 311.487 491.212 319.18 493.571 321.378C495.93 323.576 499.642 323.43 501.861 321.052Z"
		fill="#0ACC94">
	</path>
	<path stroke="rgba(24, 35, 61, 1)" stroke-width="1" stroke-linecap="round" d="M516.192 307.922L505.172 316.632">
	</path>
	<path stroke="rgba(24, 35, 61, 1)" stroke-width="1" stroke-linecap="round" d="M494.803 313.627L506.082 323.332">
	</path>
	<path stroke="rgba(24, 35, 61, 1)" stroke-width="1" stroke-linecap="round" d="M512.422 292.777L505.172 298.862">
	</path>
	<path stroke="rgba(24, 35, 61, 1)" stroke-width="1" stroke-linecap="round" d="M499.314 298.672L505.192 305.012">
	</path>
	<defs>
		<mask id="mask-3ZEb26am0k" style="mask-type:alpha" maskUnits="userSpaceOnUse">
			<path
				d="M0.195926 140.289C-6.12287 226.481 143.812 399.311 384.66 382.994C625.508 366.673 446.702 254.471 424.828 188.454C402.954 122.437 505.17 43.9874 295.871 54.4337C86.5766 64.8801 6.50963 54.0998 0.195926 140.289Z"
				fill="#000000">
			</path>
		</mask>
	</defs>
</svg>