<svg xmlns="http://www.w3.org/2000/svg" width="583.132" height="433.532" viewBox="30 30 563.132 353.532" fill="none"><path d="M47.547 192.882c-18.8-124.97 121.416-80.41 162.972-55.453 77.34 64.76 110.218 49.878 189.143-7.227 78.926-57.103 143.425-16.582 168.872 41.903 25.452 58.485 40.228 183.666-156.981 208.167-197.214 24.497-346.656-72.081-364.006-187.39z" fill="#FFF8E4"/><path d="M144.222 330.59s286.837-94.049 427.42-36.894c0 0-47.426 86.138-203.695 90.031-130.893 2.039-223.725-53.137-223.725-53.137z" fill="#DBFFF5"/><path d="M225.857 33.612c12.467 61.38 58.653 103.086 115.6 91.435 56.946-11.65 71.45-67.141 47.813-91.58-23.637-24.44-175.88-61.235-163.413.145z" fill="#FFF8E4"/><g mask="url(#prefix__mask-3ZEb26am0k)"><path d="M482.092 383.172s-5.563-5.415-10.493-6.317c-4.93-.903-13.233 6.809-16.377 8.18 11.763 2.353 13.103 2.657 16.941 2.657 3.839 0 9.929-4.52 9.929-4.52z" fill="#CA7856"/><path d="M470.211 344.699c1.972-.347 3.284-2.254 2.93-4.258-.354-2.005-2.677-6.824-4.649-6.477-1.972.348-2.845 5.73-2.491 7.735.354 2.004 2.239 3.347 4.21 3z" fill="#0ACC94"/><path stroke="rgba(24, 35, 61, 1)" stroke-linecap="round" d="M470.167 340.932v38.74"/><path d="M475.242 364.2c1.771 2.109 4.893 2.404 6.973.659 2.081-1.744 6.061-7.685 4.291-9.793-1.771-2.109-8.622.414-10.702 2.158-2.081 1.745-2.332 4.868-.562 6.976zM473.392 347.4c1.771 2.109 4.893 2.404 6.973.66 2.08-1.745 6.061-7.686 4.291-9.794-1.771-2.109-8.622.414-10.703 2.159-2.08 1.744-2.331 4.867-.561 6.975zM467.624 353.162c1.619-2.227 1.15-5.325-1.047-6.92-2.197-1.595-8.929-4.017-10.548-1.791-1.619 2.227 2.488 8.259 4.685 9.854 2.197 1.595 5.291 1.083 6.91-1.143zM466.861 372.052c2.219-2.378 2.106-6.088-.253-8.286-2.359-2.198-9.935-6.036-12.155-3.658-2.219 2.379 1.759 10.072 4.118 12.27 2.359 2.198 6.071 2.052 8.29-.326z" fill="#0ACC94"/><path stroke="rgba(24, 35, 61, 1)" stroke-linecap="round" d="M481.192 358.922l-11.02 8.71M459.803 364.627l11.279 9.705M477.422 343.777l-7.25 6.085M464.314 349.672l5.878 6.34"/></g><g mask="url(#prefix__mask-3ZEb26am0k)"><path fill="#FFF" d="M175.052 180.412c-11.04 2.07-25.979 8.12-44.829 18.13-8.241 4.72-47.83 27.54-52.75 46.39-4.91 18.85 11.23 21.01 19.06 21.25 7.83.25 45.47-25.86 45.47-25.86v13.22l90.41 8.21v-21.43l27.079 13.22 25.47 12.89s5.511-.93 11.13-9.63c5.62-8.69-5.78-24.57-23.79-39.22-17.999-14.66-35.889-26.86-38.74-28.36-5.389-2.86-14.729-6.13-28.02-9.83l-30.49 1.02z"/><path fill="rgba(24, 35, 61, 1)" d="M205.562 179.891l-30.492 1.017-.017-.5.093.492-.093-.492.093.492q-16.48 3.096-44.686 18.085l-.235-.441.248.434-.248-.434.248.434q-15.794 9.032-27.572 17.86-9.797 7.344-15.902 13.898-7.365 7.906-9.038 14.324-1.688 6.474-.207 10.956 1.249 3.778 4.747 6.105 4.931 3.28 14.044 3.565l-.016.5.016-.5-.016.5.016-.5q1.304.041 4.002-1.006 2.513-.975 6.152-2.871 6.152-3.206 15.221-8.876 6.488-4.056 13.784-8.939 3.643-2.437 6.018-4.084l.785.41v13.219h-.5l.045-.498 90.408 8.217-.045.498h-.5V240.32l.719-.449 27.076 13.219.006.003 25.471 12.892-.225.447-.084-.493.084.493-.084-.493q.298-.051.859-.258 1.159-.428 2.413-1.224 1.773-1.125 3.476-2.832 2.141-2.146 4.044-5.091l.42.271-.42-.271.42.271-.42-.271q1.945-3.011 1.114-7.373-.805-4.227-4.149-9.466-3.235-5.065-8.59-10.683-5.245-5.502-12.056-11.046l.315-.387-.315.387.315-.387-.315.387q-6.307-5.133-13.235-10.391-5.923-4.495-11.795-8.7-4.99-3.574-8.953-6.236-3.536-2.375-4.68-2.98-8.035-4.252-27.915-9.786l.134-.481.017.499zm-.034-.999l.151.018q19.984 5.563 28.114 9.865l-.234.442.234-.442-.234.442.234-.442q1.191.63 4.771 3.034 3.976 2.67 8.977 6.253 5.883 4.213 11.817 8.717 6.942 5.268 13.262 10.412 6.86 5.583 12.149 11.131 5.422 5.688 8.708 10.835 3.449 5.401 4.29 9.817.905 4.755-1.257 8.102-1.961 3.034-4.176 5.255-1.781 1.786-3.648 2.971-1.344.853-2.603 1.317-.648.24-1.038.306l-.309-.047-25.471-12.893.225-.446-.219.45-27.076-13.219.22-.45h.5v21.436l-.545.498-90.408-8.217-.455-.498V240.32h.5l.285.411q-2.382 1.652-6.031 4.094-7.31 4.892-13.81 8.956-9.103 5.691-15.29 8.915-7.827 4.078-10.647 3.99-9.398-.295-14.566-3.732-3.786-2.519-5.143-6.624-1.574-4.763.188-11.523l.484.127-.484-.127.484.127-.484-.127q1.737-6.662 9.274-14.752 6.166-6.62 16.035-14.017 11.827-8.866 27.675-17.928l.013-.008q28.341-15.061 44.971-18.185l.076-.008 30.491-1.017zm.151.018l-.134.482-.017-.5.077-.003.074.021zm-30.642.999l.016.499-.092-.491.037-.007.039-.001zm-45.047 18.193l.235.442-.248-.434.007-.004.006-.004zm102.644 41.769l-.219.449h-.5v-.8l.719.351zm27.082 13.222l-.226.446.22-.449.003.002.003.001zM77.961 245.06l-.484-.126.484.126zm206.775 21.818l.226-.446.083.493-.162.027-.147-.074zm-51.41-77.219l.233-.442-.233.442zM96.514 266.686l.015-.5-.015.5zm45.993-26.366h-.5l-.285-.41.785-.545v.955zm-1 13.219h.5l-.045.498-.455-.041v-.457zm90.863 8.715l.045-.498h.5v.547l-.545-.049z"/><path d="M202.212 176.94c2.899 0 5.49 7.233 5.49 7.233v16.743l-13.085-9.387-3.292-2.601-18.043 13.284s1.12-13.385 1.12-19.329c0-5.943 11.682-8.191 11.682-8.191s13.23 2.248 16.128 2.248z" stroke="rgba(24, 35, 61, 1)" stroke-linecap="round" fill="#FFF"/><path d="M201.771 180.646l-10.45 15.136-11.487-15.788-1.434-19.533s-3.665-5.108-4.789-16.499c0 0-3.91-1.001-4.423-5.713-.513-4.713 2.665-4.713 2.665-4.713l4.055-12.974h34.975l-.503 12.411s3.34-.918 2.655 5.801c-.68 4.035-4.531 5.188-4.531 5.188s-1.956 14.718-5.181 17.228l-1.552 19.456z" stroke="rgba(24, 35, 61, 1)" stroke-linecap="round" fill="#FFF"/><path stroke="rgba(24, 35, 61, 1)" stroke-linecap="round" d="M200.782 162.762l2.55-1.57M170.742 138.252l2.25 1.48"/><path d="M192.982 165.899s-5.681 6.333-13.392 6.333l-1.168-12.43s2.588 3.564 5.557 4.284c2.97.72 9.003 1.813 9.003 1.813z" fill="#18233D"/><path d="M196.835 154.127q-.147-.166-.41-.403-.513-.464-1.112-.849-1.931-1.243-4.026-1.243-1.319 0-2.191.12-1.077.148-1.872.522-.884.416-1.549 1.163-.677.76-1.189 1.937-.538 1.236-.933 2.815-.433 1.727-.545 3.302-.13 1.822.202 3.123.403 1.58 1.461 2.273 1.053.689 2.58 1.114 1.612.448 3.332.479 1.914.033 3.639-.465 1.946-.562 3.462-1.752 1.561-1.225 1.753-3.473.146-1.719-.524-3.959-.471-1.575-1.292-3.255-.411-.842-.733-1.375l-.023-.04-.03-.034zm-11.616 11.923q.923.604 2.3.988 1.489.414 3.082.442 1.763.031 3.343-.426 1.759-.508 3.123-1.578 1.219-.956 1.373-2.771.13-1.53-.485-3.588-.447-1.495-1.233-3.102-.376-.77-.666-1.258-.108-.117-.301-.291-.453-.409-.983-.751-1.684-1.083-3.485-1.083-1.251 0-2.054.11-.926.128-1.583.437-.7.328-1.228.922-.57.641-1.019 1.672-.505 1.161-.88 2.659-.412 1.642-.518 3.13-.118 1.66.174 2.804.307 1.204 1.04 1.684z" fill-rule="evenodd" fill="#E3AE98"/><path stroke="rgba(24, 35, 61, 1)" stroke-linecap="round" d="M188.152 155.062c2.422 1.668 5.2 1.185 5.2 1.185M208.962 139.731l2.85-2.96"/><path d="M208.393 141.612s.504-11.101-.492-15.024c-.995-3.922 5.131-.291 5.131-.291s-1.263 5.854-2.281 8.893c-1.018 3.04-2.358 6.422-2.358 6.422z" fill="#CA7856"/><path stroke="rgba(24, 35, 61, 1)" stroke-linecap="round" d="M191.012 152.163s3.95.433 3.95-1.286c0-1.72-2.737-4.068-3.18-12.106"/><path d="M215.212 123.637c0-5.157-5.185-6.687-5.185-6.687s3.46-5.215-1.62-7.16c-5.08-1.944-26.875-4.603-29.993 4.129-11.543-3.635-9.056 15.998-8.02 20.13 1.036 4.132 3.274 8.123 3.274 8.123s.898-9.108 3.873-10.742c2.975-1.633 2.272-9.482 2.272-9.482s5.407 7.855 15.143 7.855c9.737 0 20.256-1.009 20.256-6.166z" fill="#E3AE98"/><path stroke="rgba(24, 35, 61, 1)" stroke-linecap="round" d="M178.412 116.952c0 1.422 1.4 5 1.4 5"/><path d="M179.382 128.979c-3.65.042-6.945-1.961-9.885-6.007-.287 4.492.444 9.262.897 11.069.69 2.753 1.781 5.461 3.274 8.121.598-6.071 1.889-9.651 3.872-10.739.828-.454 1.442-1.269 1.842-2.444z" fill="#CA7856"/><path stroke="rgba(24, 35, 61, 1)" stroke-linecap="round" d="M190.252 114.102c4.155 0 19.78 2.84 19.78 2.84M189.282 163.467c1.931-.465 3.04 1.345 3.04 1.345"/><path d="M187.192 134.682c0 2.093-2.558.663-4.553.663-1.994 0-3.064.478-3.638-.663-.574-1.141 2.568-1.927 4.096-1.927 1.527 0 4.095-.167 4.095 1.927zM196.172 134.902c0 2.093 2.558.663 4.553.663 1.994 0 3.064.478 3.638-.663.574-1.141-2.568-1.927-4.096-1.927-1.527 0-4.095-.167-4.095 1.927z" fill="#CA7856"/><path d="M183.797 140.242a.988.988 0 01-.985-.99c0-.547.441-.99.985-.99s.985.443.985.99c0 .546-.441.99-.985.99zM199.517 140.242a.988.988 0 01-.985-.99c0-.547.441-.99.985-.99s.985.443.985.99c0 .546-.441.99-.985.99z" fill="#18233D"/><path d="M191.952 134.036c-22.298-.39-40.311-4.321-40.233-8.78.078-4.459 18.216-7.758 40.515-7.367 22.297.39 40.31 4.321 40.233 8.78-.078 4.459-18.217 7.757-40.515 7.367z" fill="#FFC982"/><path stroke="rgba(24, 35, 61, 1)" stroke-linecap="round" d="M220.705 124.493l-8.143-2.773"/><path d="M213.464 122.748s-3.711-23.86-16.703-25.456c-12.992-1.595-24.633 1.948-28.746 25.619 21.769 9.047 45.449-.163 45.449-.163z" fill="#FFC982"/><path stroke="rgba(24, 35, 61, 1)" stroke-linecap="round" d="M162.162 124.056l5.881-1.455"/><path d="M212.363 115.026s-8.441 2.612-19.616 2.454c-11.174-.158-23.244-2.854-23.244-2.854s-1.485 4.979-1.878 8.178c5.384 2.26 10.719 3.244 24.148 3.117 13.428-.127 22.224-3.333 22.224-3.333l-1.634-7.562z" fill="#FFF"/><path stroke="rgba(24, 35, 61, 1)" stroke-linecap="round" d="M191.602 244.922l-.59-49.14"/><path d="M187.267 203.052a1.816 1.816 0 11.001-3.631 1.816 1.816 0 01-.001 3.631zM187.267 223.392a1.816 1.816 0 11.001-3.631 1.816 1.816 0 01-.001 3.631zM187.267 243.002a1.816 1.816 0 11.001-3.631 1.816 1.816 0 01-.001 3.631z" fill="#18233D"/><path d="M163.029 182.882l-7.284 2.051-4.791 59.786-10.972 7.458v240.185h34.527l17.776-124.083 21.259 124.083h32.248l-11.446-241.779-7.184-5.864-1.684-59.786-8.287-2.051 1.718 58.866h-58.767l2.887-58.866z" fill="#0ACC94"/><path stroke="rgba(24, 35, 61, 1)" stroke-linecap="round" d="M185.422 364.092l13.153 8.72"/><path stroke="rgba(255, 255, 255, 1)" d="M242.632 479.942l-10.22-231.71"/><path fill="rgba(255, 255, 255, 1)" d="M158.333 251.002v21.05c0 16.182 13.118 29.3 29.3 29.3 16.181 0 29.3-13.118 29.3-29.3v-21.05h.5v.5h-59.6v-.5h.5zm-1-.5h60.6v21.55c0 16.734-13.566 30.3-30.3 30.3-16.735 0-30.3-13.566-30.3-30.3v-21.55z"/><path d="M254.162 241.545s-12.541-5.878-22.05-1.004l7.341 3.471 14.709-2.467z" fill="#18233D"/><path stroke="rgba(24, 35, 61, 1)" stroke-linecap="round" d="M201.525 242.94s-5.535-19.316-8.497-20.264c-2.963-.947-.418 7.266-1.39 9.737"/><path d="M207.979 249.165s-4.778-6.83-6.392-9.707c-4.352-7.758-6.381-12.179-8.097-12.24-3.528-.124-.99 27.221 1.637 35.41 2.628 8.188 14.188 4.933 14.188 4.933l-1.336-18.396z" stroke="rgba(24, 35, 61, 1)" stroke-linecap="round" fill="#FFF"/><path stroke="rgba(24, 35, 61, 1)" stroke-linecap="round" d="M191.583 233.92c2.781-.467 6.765 14.294 6.765 14.294M242.333 243.008l-35.271 4.602 2.237 20.99 76.204-2.398M226.638 268.245l-.308-24.235"/><path d="M220.118 251.373a1.815 1.815 0 11.938-3.506 1.815 1.815 0 01-.938 3.506z" fill="#18233D"/><path stroke="rgba(24, 35, 61, 1)" stroke-linecap="round" d="M180.415 242.937s5.534-19.316 8.497-20.264c2.963-.948.418 7.266 1.389 9.737"/><path d="M174.131 249.16s4.353-3.998 5.956-6.86c4.374-7.806 7.291-15.081 9.012-15.141 2.544-.001 1.545 2.497 1.599 6.269.12 8.566-1.892 23.511-3.716 29.197-2.627 8.189-14.188 4.933-14.188 4.933l1.337-18.398z" stroke="rgba(24, 35, 61, 1)" stroke-linecap="round" fill="#FFF"/><path stroke="rgba(24, 35, 61, 1)" stroke-linecap="round" d="M190.458 233.911c-2.781-.468-6.765 14.293-6.765 14.293M133.453 239.487l41.88 8.234-2.236 20.992-76.205-2.4M155.396 268.248l.308-24.235"/><path d="M161.914 251.366a1.815 1.815 0 10-.94-3.506 1.815 1.815 0 00.94 3.506zM144.242 241.959s-3.569-6.398-9.769-8.72c-6.201-2.321-15.084 3.981-15.084 3.981l24.853 4.739zM141.506 491.642l-2.369 55.21s-24.435 15.506-24.435 20.826c0 5.319 28.012 0 32.844 0 2.963 0 13.66-.106 18.423-1.799 3.004-1.069 1.095-7.892 1.659-11.18 1.345-7.847 6.124-63.057 6.124-63.057h-32.246z" fill="#18233D"/><path stroke="rgba(255, 255, 255, 1)" stroke-linecap="round" d="M139.132 546.847h12.38"/><path d="M191.812 368.782l-24.93 123.58h7.794l17.136-123.58z" fill="#18233D"/><path d="M177.561 477.292h-39.349c-2.767 0 0 4.971 0 10.022 0 5.05-3.403 6.628 5.744 6.628h31.922c2.757 0 .333-4.676 1.683-8.325 1.35-3.65 4.492-8.325 0-8.325z" fill="#57E4BB"/><path d="M245.068 491.642l2.369 55.21s24.435 15.506 24.435 20.826c0 5.319-28.012 0-32.843 0-2.963 0-13.66-.106-18.423-1.799-3.004-1.069-1.096-7.892-1.66-11.18-1.344-7.847-6.124-63.057-6.124-63.057h32.246z" fill="#18233D"/><path stroke="rgba(255, 255, 255, 1)" stroke-linecap="round" d="M235.282 546.987h12.38"/><path d="M248.061 477.292h-39.349c-2.767 0 0 4.971 0 10.022 0 5.05-3.403 6.628 5.744 6.628h31.922c2.757 0 .333-4.676 1.683-8.325 1.35-3.65 4.492-8.325 0-8.325z" fill="#57E4BB"/></g><g mask="url(#prefix__mask-3ZEb26am0k)"><path d="M303.202 553.205s-7.345 8.858-15.661 13.51c-8.316 4.651 6.825 6.22 17.153 1.29 10.327-4.93 8.894-5.51 11.436-6.004.783-.152 1.985 2.694 1.985 2.694l5.931-1.152s.163-5.073 1.385-8.715c3.013-8.976-5.395-11.903-5.395-11.903l-16.834 10.28z" fill="#18233D"/><path d="M306.765 543.44c-1.26 13.56-13.468 17.272-9.873 18.521 3.595 1.25 17.5-4.621 23.617-9.755 6.117-5.132 2.138-1.795 2.138-15.544 0-13.748 6.254-45.655 5.923-77.617 0-14.025-25.159-9.341-25.159-9.341s4.614 80.177 3.354 93.736z" stroke="rgba(24, 35, 61, 1)" stroke-linecap="round" fill="#FFF"/><path stroke="rgba(24, 35, 61, 1)" stroke-linecap="round" d="M319.882 549.832c1.84-2.211 0-6.86 0-6.86"/><path d="M372.303 553.205s7.345 8.858 15.661 13.51c8.316 4.651-6.825 6.22-17.153 1.29-10.327-4.93-8.894-5.51-11.436-6.004-.783-.152-1.985 2.694-1.985 2.694l-5.931-1.152s-.163-5.073-1.385-8.715c-3.013-8.976 5.395-11.903 5.395-11.903l16.834 10.28z" fill="#18233D"/><path d="M368.74 543.44c1.26 13.56 13.467 17.272 9.872 18.521-3.594 1.25-17.499-4.621-23.616-9.755-6.117-5.132-2.138-1.795-2.138-15.544 0-13.748-6.254-45.655-5.923-77.617 0-14.025 25.159-9.341 25.159-9.341s-4.615 80.177-3.354 93.736z" stroke="rgba(24, 35, 61, 1)" stroke-linecap="round" fill="#FFF"/><path stroke="rgba(24, 35, 61, 1)" stroke-linecap="round" d="M355.692 549.832c-1.84-2.211 0-6.86 0-6.86"/><path d="M299.5 276.287s-36.247 129.84-41.808 187.987c0 0 24.318 20.398 82.501 20.398 58.183 0 94.859-20.398 94.859-20.398s-40.053-147.904-70.607-188.797c-30.553-40.893-64.945.81-64.945.81z" fill="#57E4BB"/><path d="M302.554 276.279s-29.282 107.308-35.331 156.316c0 0 28.469 12.427 60.122 12.427 31.651 0 70.018-6.833 70.018-6.833s-30.66-135.673-44.476-161.91c-13.815-26.235-50.333 0-50.333 0z" fill="#FFF"/><path d="M336.607 192.882s28.658 4.176 36.245 11.474l-8.412 54.416v17.52h-64.946l4.821-32.305s-9.862-3.204-6.496-19.723c3.367-16.52 4.737-25.792 4.737-25.792l34.051-5.59zM310.463 160.702l-10.97-1.263s4.033-13.349 15.389-22.134c11.356-8.784-4.419 23.397-4.419 23.397z" fill="#0ACC94"/><path d="M332.527 190.688c15.724 0 21.231 4.55 28.668-2.099 7.436-6.649.634-46.014-6.065-56.607-6.698-10.593-42.402 11.244-42.402 11.244s-14.543 37.137-8.301 45.363c6.242 8.226 12.377 2.099 28.1 2.099z" fill="#CA7856"/><path d="M327.354 187.26c0 3.058-2.819 7.764-2.819 7.764s-6.46.843-5.541 3.469c1.442 4.122 4.228 12.934 11.129 15.325.864.301-.816 11.047.183 11.124.842.064 4.265-10.516 5.052-10.629 7.586-1.09 12.537-9.797 14.618-13.999 2.298-4.637-3.926-5.29-3.926-5.29l1.434-19.532s3.666-5.108 4.79-16.501c0 0 3.91-.999 4.423-5.712.513-4.713-2.665-4.713-2.665-4.713l-4.056-12.974h-34.974l.503 12.411s-3.34-.918-2.655 5.801c.68 4.036 4.531 5.187 4.531 5.187s2.538 17.245 9.973 20.291v7.978z" stroke="rgba(24, 35, 61, 1)" stroke-linecap="round" fill="#FFF"/><path stroke="rgba(24, 35, 61, 1)" stroke-linecap="round" d="M355.143 153.282l-2.25 1.48"/><path d="M332.903 180.929s5.681 6.333 13.392 6.333l1.168-12.43s-2.354 3.564-6.362 5.004c-4.007 1.44-8.198 1.093-8.198 1.093z" fill="#18233D"/><path stroke="rgba(24, 35, 61, 1)" stroke-linecap="round" d="M337.733 170.102c-2.422 1.668-5.2 1.185-5.2 1.185M317.303 156.282l-2.54-2.843M333.873 164.318s-1.93.211-1.93-.626 1.337-1.979 1.554-5.89"/><path d="M359.002 149.54s-6.166 1.963-12.051 0c-5.884-1.963-9.217-11.849-9.217-11.849s-12.139 14.11-21.875 14.11c-3.746.235-7.087-3.421-7.087-8.578 0-5.156 7.087-11.244 7.087-11.244s23.114-14.38 26.232-5.649c13.826-4.561 17.124 14.063 16.088 18.195-1.036 4.132.823 5.015.823 5.015z" fill="#E3AE98"/><path d="M317.292 131.291s35.324-5.361 45.649 29.411l9.901-1.771c-5.21-47.638-36.08-42.888-44.172-37.934-8.091 4.953-11.378 10.294-11.378 10.294z" fill="#0ACC94"/><path stroke="rgba(24, 35, 61, 1)" stroke-linecap="round" d="M339.773 132.312c0 1.423-1.4 5-1.4 5"/><path d="M338.292 150.121c0 1.984 2.252.628 4.008.628 1.755 0 2.697.454 3.202-.628.505-1.082-2.261-1.826-3.605-1.826-1.344 0-3.605-.158-3.605 1.826zM330.292 150.121c0 1.984-2.252.628-4.007.628s-2.697.454-3.202-.628c-.505-1.082 2.261-1.826 3.605-1.826 1.344 0 3.604-.158 3.604 1.826z" fill="#CA7856"/><path d="M342.088 155.272a.988.988 0 00.985-.99.987.987 0 00-.985-.99.987.987 0 00-.985.99c0 .546.441.99.985.99zM326.368 155.272a.988.988 0 00.985-.99.987.987 0 00-.985-.99.987.987 0 00-.985.99c0 .546.441.99.985.99z" fill="#18233D"/><path stroke="rgba(255, 255, 255, 1)" d="M366.762 238.192s-4.965 14.697-4.06 38.096c14.679 23.678 66.39 191.014 66.39 191.014"/><path d="M303.013 198.472s-13.669 4.622-19.15 15.966c-5.48 11.343-22.35 51.986-22.35 63.439 0 11.454 13 17.089 20.75 13.921 7.75-3.167 17.877-60.307 17.877-60.307l2.873-33.019z" fill="#57E4BB"/><path d="M268.334 266.852s-8.211.241-8.211 9.427 6.218 15.232 13.647 16.379c7.429 1.147 15.5.624 17.134-11.132 1.633-11.755-22.57-14.674-22.57-14.674z" fill="#0ACC94"/><path d="M272.054 255.015l52.497-22.283 29.847 70.316s1.918 9.866-22.407 20.191c-24.324 10.326-30.089 2.093-30.089 2.093l-29.848-70.317z" stroke="rgba(24, 35, 61, 1)" stroke-linecap="round" fill="#FFF"/><path d="M304.216 271.844s11.437-1.037 19.05-6.361c7.612-5.324 9.169-6.777 9.169-6.777l11.571 26.697s-5.186 6.261-12.542 9.173c-7.356 2.911-16.689 2.258-16.689 2.258l-10.559-24.99z" stroke="rgba(24, 35, 61, 1)" stroke-linecap="round" fill="#FFF"/><path d="M301.705 251.891c21.571-9.156 24.3-15.731 22.846-19.159-1.455-3.426-14.386-1.216-28.882 4.937-14.497 6.154-25.069 13.92-23.615 17.347 1.455 3.427 8.081 6.031 29.651-3.125z" fill="#E5E9F3"/><path d="M324.332 232.216l-11.82-7.182-36.698 15.577-3.979 13.889 52.497-22.284z" fill="#E5E9F3"/><path d="M272.917 233.911l36.903-15.665 3.248 7.654s1.327 6.884-15.773 14.142c-17.099 7.259-21.13 1.522-21.13 1.522l-3.248-7.653z" stroke="rgba(24, 35, 61, 1)" stroke-linecap="round" fill="#FFF"/><path d="M293.341 230.727c10.191-4.326 17.616-9.8 16.586-12.228-1.03-2.427-10.127-.889-20.317 3.437-10.191 4.326-17.616 9.8-16.586 12.228 1.03 2.427 10.127.888 20.317-3.437z" fill="#4964A3"/><path fill="#FFC982" d="M267.151 267.711a1.418 1.418 0 001.529-1.292l3.518-39.182a1.409 1.409 0 00-1.282-1.528 1.417 1.417 0 00-1.528 1.292l-3.519 39.182a1.409 1.409 0 001.282 1.528z"/><path d="M266.283 225.526l42.104-17.872 4.584 10.8s1.81 6.225-17.7 14.506c-19.509 8.281-24.404 3.366-24.404 3.366l-4.584-10.8z" stroke="rgba(24, 35, 61, 1)" stroke-linecap="round" fill="#FFF"/><path d="M289.449 221.57c11.626-4.935 20.104-11.168 18.936-13.921-1.169-2.753-11.541-.983-23.168 3.952-11.627 4.935-20.105 11.167-18.936 13.92 1.168 2.753 11.541.984 23.168-3.951z" fill="#E5E9F3"/><path fill="#18233D" d="M272.806 270.987l23.463-3.746a5.348 5.348 0 004.43-6.098 5.318 5.318 0 00-6.087-4.423l-23.462 3.747a5.348 5.348 0 00-4.431 6.098 5.317 5.317 0 006.087 4.422z"/><path d="M297.628 266.137c2.295-.974 3.369-3.617 2.399-5.902-.97-2.285-3.617-3.348-5.912-2.373-2.295.974-3.37 3.616-2.4 5.901.97 2.286 3.617 3.348 5.913 2.374z" fill="#4964A3"/><path fill="#FFC982" d="M295.927 263.319a1.408 1.408 0 001.572-1.227l4.886-39.056a1.395 1.395 0 00-1.228-1.571 1.407 1.407 0 00-1.571 1.227l-4.886 39.056a1.395 1.395 0 001.227 1.571z"/><path d="M263.513 280.441c0-3.768 2.543-7.199 11.324-7.199 8.781 0 42.399 14.916 47.907 16.229 5.509 1.313 12.173 1.572 12.173 1.572s6.8-5.079 9.436-6.279c2.637-1.201 5.794-2.624 5.794-1.312s-5.085 5.793-5.085 6.586c0 .793 4.692-1.162 6.455-2.896.778-.765 1.491-.313 1.583 1.47.045.869-.416 1.989-.515 3.128-.073.845.5 1.698.515 2.467.018.887-.515 1.662-.515 2.172.116.791 1.487.142.922 2.505-.566 2.364-16.958 3.418-21.106 3.418-4.148 0-49.567-6.556-57.564-9.41-7.998-2.854-11.324-8.683-11.324-12.451z" stroke="rgba(24, 35, 61, 1)" stroke-linecap="round" fill="#FFF"/><path stroke="rgba(24, 35, 61, 1)" stroke-linecap="round" d="M349.752 291.932l2.74-1.67M350.002 294.532l2.74-1.67M350.002 297.942l2.91-1.707"/><path d="M325.966 320.29c-3.184-1.719 1.828-2.862 3.7-2.058 1.872.804 7.292-.554 9.246-1.154 1.954-.599 6.746-.921 6.746-.921s9.916-6.505 8.759-13.101l-1.177-2.8c4.384-3.566 20.524-22.742 20.524-22.742v-2.618l19.819-3.064v7.152c-.262 10.833-23.536 25.133-37.78 34.221-4.345 2.773-6.273 7.061-11.22 9.657-4.994 3.012-17.544 4.68-23.32 4.68l11.779-4.68s-3.892-.853-7.076-2.572z" stroke="rgba(24, 35, 61, 1)" stroke-linecap="round" fill="#FFF"/><path d="M373.763 277.512s3.9-.215 6.728-1.226c2.827-1.012 5.202-3.042 5.202-3.042s-6.286-.868-9.108-4.692c-2.822-3.824-2.822 8.96-2.822 8.96z" fill="#18233D"/><path d="M368.673 201.302s13.747 8.595 16.644 16.95c2.897 8.354 10.37 46.629 12.046 53.582l-25.218 4.458-5.382-34.23 1.91-40.76z" fill="#57E4BB"/><path d="M369.323 264.347c3.533-.624 20.464-3.361 24.254-4.079 3.791-.718 2.389 2.35 2.953 4.827.564 2.477 3.444 5.965 2.004 6.729-1.44.765-25.063 4.458-27.137 4.458-2.074 0-1.191-2.465-1.191-5.538 0-3.073-4.416-5.772-.883-6.397z" fill="#0ACC94"/></g><path d="M491.092 277.172s-5.563-5.415-10.493-6.317c-4.93-.903-13.233 6.809-16.377 8.18 11.763 2.353 13.103 2.657 16.941 2.657 3.839 0 9.929-4.52 9.929-4.52z" fill="#CA7856"/><path d="M479.211 238.699c1.972-.347 3.284-2.254 2.93-4.258-.354-2.004-2.677-6.824-4.649-6.477-1.972.348-2.845 5.73-2.491 7.735.354 2.004 2.239 3.347 4.21 3z" fill="#0ACC94"/><path stroke="rgba(24, 35, 61, 1)" stroke-linecap="round" d="M479.167 234.932v38.74"/><path d="M484.242 258.2c1.771 2.109 4.893 2.404 6.973.659 2.081-1.744 6.061-7.685 4.291-9.793-1.771-2.109-8.622.414-10.702 2.158-2.081 1.745-2.332 4.868-.562 6.976zM482.392 241.4c1.771 2.109 4.893 2.404 6.973.66 2.08-1.745 6.061-7.686 4.291-9.794-1.771-2.109-8.622.414-10.703 2.159-2.08 1.744-2.331 4.867-.561 6.975zM476.624 247.162c1.619-2.227 1.15-5.325-1.047-6.92-2.197-1.595-8.929-4.017-10.548-1.791-1.619 2.227 2.488 8.259 4.685 9.854 2.197 1.595 5.291 1.083 6.91-1.143zM475.861 266.052c2.219-2.378 2.106-6.088-.253-8.286-2.359-2.198-9.935-6.036-12.155-3.658-2.219 2.379 1.759 10.072 4.118 12.27 2.359 2.198 6.071 2.052 8.29-.326z" fill="#0ACC94"/><path stroke="rgba(24, 35, 61, 1)" stroke-linecap="round" d="M490.192 252.922l-11.02 8.71M468.803 258.627l11.279 9.705M486.422 237.777l-7.25 6.085M473.314 243.672l5.878 6.34"/><path d="M557.092 289.172s-5.563-5.415-10.493-6.317c-4.93-.903-13.233 6.809-16.377 8.18 11.763 2.353 13.103 2.657 16.941 2.657 3.839 0 9.929-4.52 9.929-4.52z" fill="#CA7856"/><path d="M545.211 250.699c1.972-.347 3.284-2.254 2.93-4.258-.354-2.004-2.677-6.824-4.649-6.477-1.972.348-2.845 5.73-2.491 7.735.354 2.004 2.239 3.347 4.21 3z" fill="#0ACC94"/><path stroke="rgba(24, 35, 61, 1)" stroke-linecap="round" d="M545.167 246.932v38.74"/><path d="M550.242 270.2c1.771 2.109 4.893 2.404 6.973.659 2.081-1.744 6.061-7.685 4.291-9.793-1.771-2.109-8.622.414-10.702 2.158-2.081 1.745-2.332 4.868-.562 6.976zM548.392 253.4c1.771 2.109 4.893 2.404 6.973.66 2.08-1.745 6.061-7.686 4.291-9.794-1.771-2.109-8.622.414-10.703 2.159-2.08 1.744-2.331 4.867-.561 6.975zM542.624 259.162c1.619-2.227 1.15-5.325-1.047-6.92-2.197-1.595-8.929-4.017-10.548-1.791-1.619 2.227 2.488 8.259 4.685 9.854 2.197 1.595 5.291 1.083 6.91-1.143zM541.861 278.052c2.219-2.378 2.106-6.088-.253-8.286-2.359-2.198-9.935-6.036-12.155-3.658-2.219 2.379 1.759 10.072 4.118 12.27 2.359 2.198 6.071 2.052 8.29-.326z" fill="#0ACC94"/><path stroke="rgba(24, 35, 61, 1)" stroke-linecap="round" d="M556.192 264.922l-11.02 8.71M534.803 270.627l11.279 9.705M552.422 249.777l-7.25 6.085M539.314 255.672l5.878 6.34"/><path d="M436.092 277.172s-5.563-5.415-10.493-6.317c-4.93-.903-13.233 6.809-16.377 8.18 11.763 2.353 13.103 2.657 16.941 2.657 3.839 0 9.929-4.52 9.929-4.52z" fill="#CA7856"/><path d="M424.211 238.699c1.972-.347 3.284-2.254 2.93-4.258-.354-2.004-2.677-6.824-4.649-6.477-1.972.348-2.845 5.73-2.491 7.735.354 2.004 2.239 3.347 4.21 3z" fill="#0ACC94"/><path stroke="rgba(24, 35, 61, 1)" stroke-linecap="round" d="M424.167 234.932v38.74"/><path d="M429.242 258.2c1.771 2.109 4.893 2.404 6.973.659 2.081-1.744 6.061-7.685 4.291-9.793-1.771-2.109-8.622.414-10.702 2.158-2.081 1.745-2.332 4.868-.562 6.976zM427.392 241.4c1.771 2.109 4.893 2.404 6.973.66 2.08-1.745 6.061-7.686 4.291-9.794-1.771-2.109-8.622.414-10.703 2.159-2.08 1.744-2.331 4.867-.561 6.975zM421.624 247.162c1.619-2.227 1.15-5.325-1.047-6.92-2.197-1.595-8.929-4.017-10.548-1.791-1.619 2.227 2.488 8.259 4.685 9.854 2.197 1.595 5.291 1.083 6.91-1.143zM420.861 266.052c2.219-2.378 2.106-6.088-.253-8.286-2.359-2.198-9.935-6.036-12.155-3.658-2.219 2.379 1.759 10.072 4.118 12.27 2.359 2.198 6.071 2.052 8.29-.326z" fill="#0ACC94"/><path stroke="rgba(24, 35, 61, 1)" stroke-linecap="round" d="M435.192 252.922l-11.02 8.71M413.803 258.627l11.279 9.705M431.422 237.777l-7.25 6.085M418.314 243.672l5.878 6.34"/><path d="M436.092 277.172s-5.563-5.415-10.493-6.317c-4.93-.903-13.233 6.809-16.377 8.18 11.763 2.353 13.103 2.657 16.941 2.657 3.839 0 9.929-4.52 9.929-4.52z" fill="#CA7856"/><path d="M424.211 238.699c1.972-.347 3.284-2.254 2.93-4.258-.354-2.004-2.677-6.824-4.649-6.477-1.972.348-2.845 5.73-2.491 7.735.354 2.004 2.239 3.347 4.21 3z" fill="#0ACC94"/><path stroke="rgba(24, 35, 61, 1)" stroke-linecap="round" d="M424.167 234.932v38.74"/><path d="M429.242 258.2c1.771 2.109 4.893 2.404 6.973.659 2.081-1.744 6.061-7.685 4.291-9.793-1.771-2.109-8.622.414-10.702 2.158-2.081 1.745-2.332 4.868-.562 6.976zM427.392 241.4c1.771 2.109 4.893 2.404 6.973.66 2.08-1.745 6.061-7.686 4.291-9.794-1.771-2.109-8.622.414-10.703 2.159-2.08 1.744-2.331 4.867-.561 6.975zM421.624 247.162c1.619-2.227 1.15-5.325-1.047-6.92-2.197-1.595-8.929-4.017-10.548-1.791-1.619 2.227 2.488 8.259 4.685 9.854 2.197 1.595 5.291 1.083 6.91-1.143zM420.861 266.052c2.219-2.378 2.106-6.088-.253-8.286-2.359-2.198-9.935-6.036-12.155-3.658-2.219 2.379 1.759 10.072 4.118 12.27 2.359 2.198 6.071 2.052 8.29-.326z" fill="#0ACC94"/><path stroke="rgba(24, 35, 61, 1)" stroke-linecap="round" d="M435.192 252.922l-11.02 8.71M413.803 258.627l11.279 9.705M431.422 237.777l-7.25 6.085M418.314 243.672l5.878 6.34"/><path d="M456.092 332.172s-5.563-5.415-10.493-6.317c-4.93-.903-13.233 6.809-16.377 8.18 11.763 2.353 13.103 2.657 16.941 2.657 3.839 0 9.929-4.52 9.929-4.52z" fill="#CA7856"/><path d="M444.211 293.699c1.972-.347 3.284-2.254 2.93-4.258-.354-2.005-2.677-6.824-4.649-6.477-1.972.348-2.845 5.73-2.491 7.735.354 2.004 2.239 3.347 4.21 3z" fill="#0ACC94"/><path stroke="rgba(24, 35, 61, 1)" stroke-linecap="round" d="M444.167 289.932v38.74"/><path d="M449.242 313.2c1.771 2.109 4.893 2.404 6.973.659 2.081-1.744 6.061-7.685 4.291-9.793-1.771-2.109-8.622.414-10.702 2.158-2.081 1.745-2.332 4.868-.562 6.976zM447.392 296.4c1.771 2.109 4.893 2.404 6.973.66 2.08-1.745 6.061-7.686 4.291-9.794-1.771-2.109-8.622.414-10.703 2.159-2.08 1.744-2.331 4.867-.561 6.975zM441.624 302.162c1.619-2.227 1.15-5.325-1.047-6.92-2.197-1.595-8.929-4.017-10.548-1.791-1.619 2.227 2.488 8.259 4.685 9.854 2.197 1.595 5.291 1.083 6.91-1.143zM440.861 321.052c2.219-2.378 2.106-6.088-.253-8.286-2.359-2.198-9.935-6.036-12.155-3.658-2.219 2.379 1.759 10.072 4.118 12.27 2.359 2.198 6.071 2.052 8.29-.326z" fill="#0ACC94"/><path stroke="rgba(24, 35, 61, 1)" stroke-linecap="round" d="M455.192 307.922l-11.02 8.71M433.803 313.627l11.279 9.705M451.422 292.777l-7.25 6.085M438.314 298.672l5.878 6.34"/><path d="M517.092 332.172s-5.563-5.415-10.493-6.317c-4.93-.903-13.233 6.809-16.377 8.18 11.763 2.353 13.103 2.657 16.941 2.657 3.839 0 9.929-4.52 9.929-4.52z" fill="#CA7856"/><path d="M505.211 293.699c1.972-.347 3.284-2.254 2.93-4.258-.354-2.005-2.677-6.824-4.649-6.477-1.972.348-2.845 5.73-2.491 7.735.354 2.004 2.239 3.347 4.21 3z" fill="#0ACC94"/><path stroke="rgba(24, 35, 61, 1)" stroke-linecap="round" d="M505.167 289.932v38.74"/><path d="M510.242 313.2c1.771 2.109 4.893 2.404 6.973.659 2.081-1.744 6.061-7.685 4.291-9.793-1.771-2.109-8.622.414-10.702 2.158-2.081 1.745-2.332 4.868-.562 6.976zM508.392 296.4c1.771 2.109 4.893 2.404 6.973.66 2.08-1.745 6.061-7.686 4.291-9.794-1.771-2.109-8.622.414-10.703 2.159-2.08 1.744-2.331 4.867-.561 6.975zM502.624 302.162c1.619-2.227 1.15-5.325-1.047-6.92-2.197-1.595-8.929-4.017-10.548-1.791-1.619 2.227 2.488 8.259 4.685 9.854 2.197 1.595 5.291 1.083 6.91-1.143zM501.861 321.052c2.219-2.378 2.106-6.088-.253-8.286-2.359-2.198-9.935-6.036-12.155-3.658-2.219 2.379 1.759 10.072 4.118 12.27 2.359 2.198 6.071 2.052 8.29-.326z" fill="#0ACC94"/><path stroke="rgba(24, 35, 61, 1)" stroke-linecap="round" d="M516.192 307.922l-11.02 8.71M494.803 313.627l11.279 9.705M512.422 292.777l-7.25 6.085M499.314 298.672l5.878 6.34"/><defs><mask id="prefix__mask-3ZEb26am0k" style="mask-type:alpha" maskUnits="userSpaceOnUse"><path d="M.196 140.289c-6.319 86.192 143.616 259.022 384.464 242.705 240.848-16.321 62.042-128.523 40.168-194.54-21.874-66.017 80.342-144.467-128.957-134.02C86.577 64.88 6.51 54.1.196 140.289z" fill="#000"/></mask></defs></svg>