<svg xmlns="http://www.w3.org/2000/svg" xmlns:xlink="http://www.w3.org/1999/xlink" width="1131.800048828125" height="791.400146484375" viewBox="0 0 1131.800048828125 791.400146484375" fill="none"><g opacity="1"  transform="translate(0 0)  rotate(0)"><g opacity="1"  transform="translate(641.199951171875 0)  rotate(0)"><path id="Vector" fill-rule="evenodd" style="fill:#AA6433" opacity="1" d="M183.3 8.80005L181.2 8.80005L178.9 8.80005L176.8 8.80005L174.6 8.80005L172.5 8.80005L170.3 8.80005L168.2 8.80005L165.9 8.80005L163.8 8.80005L161.5 8.80005L159.4 8.80005L157.2 8.80005L155.1 8.80005L152.9 8.80005L150.8 8.80005L148.5 8.80005L146.4 8.80005L144.1 8.80005L142 8.80005L139.7 8.80005L137.6 8.80005L135.4 8.80005L133.3 8.80005L131.1 8.80005L129 8.80005L74.5 8.80005C68.8 34.9 65.3 44.9 60.6 71C35.4 194 -68.2 382.2 71.6 383.8C162.2 384.9 252.7 384.8 343.5 383.6C371.7 383.3 387.8 389.9 399.6 352.7C421.9 282.4 406.7 112 407.9 71C408.7 44.9 407.5 34.8 407.9 8.80005L353.4 8.80005L351.3 8.80005L349 8.80005L346.9 8.80005L344.6 8.80005L342.5 8.80005L340.3 8.80005L338.2 8.80005L336 8.80005L333.9 8.80005L331.6 8.80005L329.5 8.80005L327.2 8.80005L325.1 8.80005L322.8 8.80005L320.7 8.80005L318.5 8.80005L316.4 8.80005L314.1 8.80005L312 8.80005L309.7 8.80005L307.6 8.80005L305.3 8.80005L303.2 8.80005L301 8.80005L298.9 8.80005L296.7 8.80005L294.6 8.80005L292.3 8.80005L290.2 8.80005L287.9 8.80005L285.8 8.80005L283.5 8.80005L281.4 8.80005L279.2 8.80005L277.1 8.80005L274.9 8.80005L272.8 8.80005L270.5 8.80005L268.4 8.80005L266.1 8.80005L264 8.80005L261.7 8.80005L259.6 8.80005L257.4 8.80005L255.3 8.80005L253.1 8.80005L251 8.80005L248.7 8.80005L246.6 8.80005L244.3 8.80005L242.2 8.80005L240 8.80005L237.9 8.80005L235.7 8.80005L233.6 8.80005L231.3 8.80005L229.2 8.80005L226.9 8.80005L224.8 8.80005L222.5 8.80005L220.4 8.80005L218.2 8.80005L216.1 8.80005L213.9 8.80005L211.8 8.80005L209.5 8.80005L207.4 8.80005L205.1 8.80005L203 8.80005L200.7 8.80005L198.6 8.80005L196.4 8.80005L194.3 8.80005L192.1 8.80005L190 8.80005L187.7 8.80005L185.6 8.80005L183.3 8.80005Z"></path><path id="Vector" fill-rule="evenodd" style="fill:#975A2D" opacity="1" d="M47.1001 20.9C47.1001 32.4 56.5001 41.8 68.0001 41.8L403.9 41.8C415.4 41.8 424.8 32.3 424.8 20.9C424.8 9.4 415.4 0 403.9 0L68.0001 0C56.5001 0 47.2001 9.4 47.1001 20.9Z"></path><path id="Vector" fill-rule="evenodd" style="fill:#58D345" opacity="1" d="M321.2 137.8C321.3 137.4 319.4 180.1 264.1 226.6C232.5 253.3 209.1 268.9 197.7 313C227.3 295.1 265.3 291.7 299.6 270.3C367.1 228.4 345 160.2 337.11 99.4C332.2 62.3 337.5 91 329.3 108.1C317 133.9 247.8 165 218.1 182.5C178.8 205.6 178.8 248.7 188.6 288.3C214.9 231.1 311.5 188.3 321.2 137.8Z"></path><path id="Vector" fill-rule="evenodd" style="fill:#58D345" opacity="1" d="M150.2 268C134.2 264.8 98.3999 261.7 88.7999 252C82.5 245.7 80.2999 231.9 84 249.3C89.8999 277.8 90.7 311.8 127.4 320.1C146.1 324.3 163.7 319.9 179.7 323.4C167.7 305.4 154.8 302 136.4 295C104.4 282.8 96.8999 264 97 264.1C109.3 285.1 159.3 289.3 180 310.7C178.3 291.5 171.5 272.2 150.2 268Z"></path><path id="Vector" fill-rule="evenodd" style="fill:#B37447" opacity="1" d="M239.9 8.80005L237.8 8.80005L235.6 8.80005L233.5 8.80005L231.2 8.80005L229.1 8.80005L226.8 8.80005L224.7 8.80005L222.4 8.80005L220.3 8.80005L220.1 8.80005L196.1 384.5C245.2 384.5 294.3 384.2 343.4 383.6C371.6 383.3 387.7 389.9 399.5 352.7C421.8 282.4 406.6 112 407.8 71C408.6 44.9 407.4 34.8 407.8 8.80005L353.3 8.80005L351.2 8.80005L348.9 8.80005L346.8 8.80005L344.5 8.80005L342.4 8.80005L340.2 8.80005L338.1 8.80005L335.9 8.80005L333.8 8.80005L331.5 8.80005L329.4 8.80005L327.1 8.80005L325 8.80005L322.7 8.80005L320.6 8.80005L318.4 8.80005L316.3 8.80005L314 8.80005L311.9 8.80005L309.6 8.80005L307.5 8.80005L305.2 8.80005L303.1 8.80005L300.9 8.80005L298.8 8.80005L296.6 8.80005L294.5 8.80005L292.2 8.80005L290.1 8.80005L287.8 8.80005L285.7 8.80005L283.4 8.80005L281.3 8.80005L279.1 8.80005L277 8.80005L274.8 8.80005L272.7 8.80005L270.4 8.80005L268.3 8.80005L266 8.80005L263.9 8.80005L261.6 8.80005L259.5 8.80005L257.3 8.80005L255.2 8.80005L253 8.80005L250.9 8.80005L248.6 8.80005L246.5 8.80005L244.2 8.80005L242.1 8.80005L239.9 8.80005Z"></path><path id="Vector" fill-rule="evenodd" style="fill:#A16B42" opacity="1" d="M218 41.8L403.9 41.8C415.4 41.8 424.8 32.3 424.8 20.9C424.8 9.4 415.4 0 403.9 0L220.6 0L218 41.8Z"></path><path id="Vector" fill-rule="evenodd" style="fill:#69D758" opacity="1" d="M203.4 265C240.4 219 312.8 181.3 321.2 138C321.3 137.6 319.4 180.3 264.1 226.8C235.2 251.1 213.3 266.2 201 302.2L200.4 311.6C229.6 294.9 266.3 291.1 299.6 270.4C367.11 228.5 345 160.3 337.1 99.4999C332.2 62.3999 337.5 91.0999 329.3 108.2C317 134 247.8 165.1 218.1 182.6C214.5 184.7 211.2 186.9 208.3 189.3L203.4 265Z"></path></g><g opacity="1"  transform="translate(816.679931640625 320.199951171875)  rotate(0)"><path id="Vector" fill-rule="evenodd" style="fill:#AA6433" opacity="1" d="M166.72 6.6001L165.02 6.6001L163.52 6.6001L161.82 6.6001L160.22 6.6001L158.52 6.6001L157.02 6.6001L155.32 6.6001L153.82 6.6001L152.12 6.6001L150.52 6.6001L148.82 6.6001L147.22 6.6001L145.52 6.6001L144.02 6.6001L142.32 6.6001L140.72 6.6001L139.02 6.6001L137.42 6.6001L135.72 6.6001L134.22 6.6001L132.52 6.6001L131.02 6.6001L129.32 6.6001L127.72 6.6001L126.02 6.6001L124.52 6.6001L122.82 6.6001L121.32 6.6001L119.62 6.6001L118.02 6.6001L116.32 6.6001L114.82 6.6001L113.12 6.6001L111.62 6.6001L109.92 6.6001L108.32 6.6001L106.62 6.6001L105.02 6.6001L103.32 6.6001L101.82 6.6001L100.02 6.6001L98.52 6.6001L96.82 6.6001L95.22 6.6001L54.82 6.6001C50.62 25.9001 48.02 33.4001 44.92 52.7001C26.32 144.1 -50.68 283.9 53.22 285.1C120.42 285.9 187.72 285.8 255.12 284.9C276.12 284.7 288.21 289.6 296.92 262C313.42 209.8 302.11 83.2001 303.02 52.7001C303.62 33.4001 302.72 25.9001 303.02 6.6001L262.52 6.6001L261.01 6.6001L259.32 6.6001L257.72 6.6001L256.02 6.6001L254.52 6.6001L252.81 6.6001L251.32 6.6001L249.62 6.6001L248.02 6.6001L246.32 6.6001L244.72 6.6001L243.01 6.6001L241.52 6.6001L239.72 6.6001L238.22 6.6001L236.52 6.6001L234.92 6.6001L233.21 6.6001L231.72 6.6001L230.02 6.6001L228.52 6.6001L226.82 6.6001L225.22 6.6001L223.52 6.6001L222.02 6.6001L220.32 6.6001L218.82 6.6001L217.12 6.6001L215.52 6.6001L213.82 6.6001L212.22 6.6001L210.52 6.6001L209.02 6.6001L207.32 6.6001L205.72 6.6001L204.02 6.6001L202.42 6.6001L200.72 6.6001L199.22 6.6001L197.52 6.6001L196.02 6.6001L194.32 6.6001L192.72 6.6001L191.02 6.6001L189.52 6.6001L187.82 6.6001L186.32 6.6001L184.62 6.6001L183.02 6.6001L181.32 6.6001L179.72 6.6001L178.02 6.6001L176.52 6.6001L174.82 6.6001L173.22 6.6001L171.52 6.6001L169.92 6.6001L168.22 6.6001L166.72 6.6001Z"></path><path id="Vector" fill-rule="evenodd" style="fill:#975A2D" opacity="1" d="M34.6201 15.5C34.6201 24.1 41.5201 31.1 50.1201 31.1L299.62 31.1C308.22 31.1 315.12 24.1 315.12 15.5C315.12 7 308.22 0 299.62 0L50.1201 0C41.5201 0 34.6201 7 34.6201 15.5Z"></path><path id="Vector" fill-rule="evenodd" style="fill:#58D345" opacity="1" d="M238.12 102.6C238.22 102.3 236.82 134 195.82 168.6C172.32 188.4 154.92 200 146.42 232.8C168.32 219.4 196.62 216.9 222.12 201C272.22 169.8 255.92 119.2 250.02 74C246.32 46.3 250.22 67.8 244.22 80.4C234.92 99.6 183.62 122.8 161.52 135.7C132.22 152.8 132.22 184.8 139.62 214.2C159.22 171.8 230.92 139.9 238.12 102.6Z"></path><path id="Vector" fill-rule="evenodd" style="fill:#58D345" opacity="1" d="M111.12 199C99.22 196.6 72.62 194.3 65.42 187.2C60.72 182.4 59.12 172.3 61.82 185.2C66.32 206.3 66.82 231.6 94.02 237.7C107.92 240.9 121.02 237.6 132.92 240.2C124.02 226.9 114.42 224.3 100.72 219.2C77.02 210.1 71.42 196.1 71.52 196.3C80.72 211.9 117.82 214.9 133.22 230.8C131.92 216.5 126.92 202.2 111.12 199Z"></path><path id="Vector" fill-rule="evenodd" style="fill:#B37447" opacity="1" d="M182.72 6.6001L181.02 6.6001L179.42 6.6001L177.72 6.6001L176.22 6.6001L174.52 6.6001L172.92 6.6001L171.22 6.6001L169.62 6.6001L167.92 6.6001L166.42 6.6001L164.72 6.6001L163.22 6.6001L163.02 6.6001L145.52 285.6C181.92 285.6 218.42 285.4 254.82 284.9C275.82 284.7 287.92 289.6 296.62 262C313.11 209.8 301.82 83.2001 302.72 52.7001C303.32 33.4001 302.42 25.9001 302.72 6.6001L262.22 6.6001L260.72 6.6001L259.02 6.6001L257.42 6.6001L255.72 6.6001L254.22 6.6001L252.52 6.6001L251.02 6.6001L249.32 6.6001L247.72 6.6001L246.02 6.6001L244.42 6.6001L242.72 6.6001L241.22 6.6001L239.42 6.6001L237.92 6.6001L236.22 6.6001L234.62 6.6001L232.92 6.6001L231.42 6.6001L229.72 6.6001L228.22 6.6001L226.52 6.6001L224.92 6.6001L223.22 6.6001L221.72 6.6001L220.02 6.6001L218.52 6.6001L216.82 6.6001L215.22 6.6001L213.52 6.6001L211.92 6.6001L210.22 6.6001L208.72 6.6001L207.02 6.6001L205.42 6.6001L203.72 6.6001L202.12 6.6001L200.42 6.6001L198.92 6.6001L197.22 6.6001L195.72 6.6001L194.02 6.6001L192.42 6.6001L190.72 6.6001L189.22 6.6001L187.52 6.6001L186.02 6.6001L184.32 6.6001L182.72 6.6001Z"></path><path id="Vector" fill-rule="evenodd" style="fill:#A16B42" opacity="1" d="M161.42 31.1L299.62 31.1C308.22 31.1 315.12 24.1 315.12 15.5C315.12 7 308.22 0 299.62 0L163.52 0L161.42 31.1Z"></path><path id="Vector" fill-rule="evenodd" style="fill:#69D758" opacity="1" d="M244.22 80.2999C234.92 99.4999 183.62 122.7 161.52 135.6C158.82 137.2 156.42 138.9 154.32 140.6L150.62 196.7C178.02 162.6 231.82 134.6 238.02 102.4C238.12 102.1 236.72 133.8 195.72 168.4C174.32 186.5 157.92 197.7 148.82 224.5L148.32 231.5C170.02 219.2 197.32 216.3 222.12 200.9C272.22 169.7 255.92 119.1 250.02 73.8999C246.32 46.1999 250.22 67.6999 244.22 80.2999Z"></path></g><g opacity="1"  transform="translate(505.18994140625 83.5400390625)  rotate(0)"><path id="Vector" fill-rule="evenodd" style="fill:#FAE00D" opacity="1" d="M216.12 205.46C195.12 83.66 137.62 -8.04 87.82 0.56C37.92 9.26 14.72 114.86 35.72 236.66C56.82 358.46 114.22 450.16 164.12 441.56C213.92 432.96 237.22 327.26 216.12 205.46Z"></path><path id="Vector" fill-rule="evenodd" style="fill:#F5CF0C" opacity="1" d="M55.11,173.86c2.5,14.7 -6.7,28.6 -20.6,31.1c-1.1,0.1 -2.2,0.2 -3.3,0.3c-2.1,-18.8 -3.2,-36.9 -3.2,-54.2c12.8,-0.8 24.5,8.9 27.1,22.8zM90.91,185.36c-9.1,1.5 -17.7,-5 -19.3,-14.6c-1.7,-9.6 4.2,-18.6 13.3,-20.2c9,-1.5 17.6,5 19.3,14.6c1.6,9.6 -4.3,18.6 -13.3,20.2zM91.71,23.4601c5.4,-1 10.6,2.9 11.6,8.7c1,5.8 -2.6,11.1 -8,12.1c-5.4,1 -10.5,-2.9 -11.6,-8.7c-1,-5.7 2.6,-11.1 8,-12.1zM87.81,0.56006c1.9,-0.3 3.9,-0.5 6,-0.5c0.7,1 1.2,2.1 1.5,3.4c0.7,4 -1.8,7.80004 -5.6,8.40004c-3.7,0.7 -7.4,-2.00004 -8,-6.00004c-0.3,-1.3 -0.2,-2.6 0.2,-3.7c1.9,-0.7 3.9,-1.2 5.9,-1.6zM109.21,53.0601c5.2,-0.9 10.2,2.9 11.1,8.3c0.9,5.6 -2.6,10.7 -7.7,11.6c-5.2,0.9 -10.1,-2.9 -11,-8.3c-1,-5.5 2.5,-10.6 7.6,-11.6zM216.11,205.56c3.1,17.4 5.2,34.5 6.4,51.1c-15.9,2.3 -31,-9.3 -34,-26.2c-2.9,-17.1 7.7,-33.3 23.9,-36.1c0.6,0 1,-0.1 1.6,-0.2c0.8,3.7 1.5,7.5 2.1,11.4zM80.11,238.46c-2.2,-12.7 5.7,-24.6 17.6,-26.7c11.9,-2.1 23.5,6.5 25.6,19.2c2.3,12.7 -5.6,24.6 -17.6,26.7c-11.9,2.1 -23.3,-6.5 -25.6,-19.2zM150.41,57.2601c-8.6,1.4 -16.9,-4.8 -18.5,-13.9c-1.3,-7.7 2.5,-15.1 8.9,-18.1c6.8,7.1 13.3,15.6 19.7,25.4c-2.3,3.4 -5.8,5.8 -10.1,6.6zM60.51,55.6601c1.6,9.2 -4.1,17.9 -12.7,19.3c-4.2,0.8 -8.4,-0.3 -11.7,-2.8c2.7,-11.3 6,-21.5 10,-30.5c7,0.7 13,6.3 14.4,14zM28.41,131.66c0.6,-14.6 2,-28.3 4.1,-41.0999c10.3,-1 19.9,6.6 21.8,17.6999c2,11.5 -5.1,22.4 -16,24.3c-3.4,0.6 -6.8,0.3 -9.9,-0.9zM131.61,229.56c-2.1,-12.7 5.7,-24.6 17.6,-26.7c11.9,-2.1 23.4,6.5 25.6,19.2c2.2,12.7 -5.7,24.6 -17.6,26.7c-11.9,2.1 -23.3,-6.5 -25.6,-19.2zM147.11,343.46c-18.2,1 -34.8,-12.7 -38.2,-32.2c-3.3,-19.5 7.7,-37.9 25.2,-43.1c18.2,-1.1 34.8,12.7 38.1,32.2c3.4,19.5 -7.6,37.9 -25.1,43.1zM176.91,152.66c-2.4,-13.8 5.4,-26.8 17.8,-30.5c5.7,16.3 10.8,33.8 15.1,52.1c-1.1,0.3 -2.1,0.6 -3.2,0.7c-13.8,2.5 -27.2,-7.6 -29.7,-22.3zM125.21,93.6601c7.1,-1.3 13.8,3.8 15.2,11.3999c1.2,7.4 -3.5,14.5 -10.4,15.8c-7.1,1.2 -13.8,-3.9 -15.2,-11.4c-1.3,-7.5 3.4,-14.5999 10.4,-15.7999zM105.71,7.56006c-0.3,-2 -0.2,-4 0.2,-5.8c7.6,2.1 15.3,6.3 22.8,12.20004c-1.9,2.5 -4.6,4.4 -7.9,5c-7.1,1.2 -13.8,-3.9 -15.1,-11.40004zM96.41,65.4601c0.9,5.6 -2.5,10.7 -7.7,11.6c-5.2,0.9 -10.1,-2.8 -11,-8.4c-1,-5.5 2.4,-10.6 7.6,-11.5c5.1,-0.9 10.1,2.8 11.1,8.3zM98.91,112.16c1.3,7.5 -3.4,14.6 -10.4,15.8c-7,1.2 -13.8,-3.9 -15.2,-11.4c-1.3,-7.5 3.4,-14.6 10.4,-15.8c7.1,-1.0999 13.9,3.9 15.2,11.4zM160.21,155.36c1.7,9.6 -4.3,18.7 -13.2,20.2c-9,1.6 -17.7,-4.9 -19.4,-14.5c-1.6,-9.5 4.4,-18.6 13.3,-20.2c9.1,-1.5 17.7,5 19.3,14.5zM187.71,320.76c-3.5,-21 9.4,-40.7 29.1,-44.1c2.3,-0.4 4.6,-0.6 6.8,-0.5c1,27.9 -0.6,53.8 -4.3,76.5c-15.5,-2.3 -28.7,-14.9 -31.6,-31.9zM59.11,303.96c19.7,-3.4 38.6,10.8 42.2,31.7c2.9,17.1 -5.2,33.4 -19,40.6c-11.2,-20 -21.4,-43.9 -29.8,-70.5c2,-0.8 4.3,-1.4 6.6,-1.8zM73.21,13.1601c1.3,7.5 -3.3,14.5 -10.4,15.8c-3.3,0.5 -6.5,-0.3 -9.1,-2c5.1,-8.2 10.9,-14.7 17.3,-19.20004c1.1,1.6 1.9,3.40004 2.2,5.40004zM178.81,108.16c-10.8,1.9 -21.3,-5.9 -23.3,-17.4999c-1.9,-11.1 4.6,-21.5 14.7,-24c6.2,11.3 12.1,23.8 17.6,37.2999c-2.6,2.1 -5.7,3.6 -9,4.2zM35.71,236.66c-0.6,-3.8 -1.2,-7.7 -1.8,-11.4c0.5,-0.2 1,-0.2 1.5,-0.4c16.2,-2.9 31.7,8.8 34.7,26c2.9,17 -7.4,32.9 -23.2,36.1c-4.4,-16 -8.2,-32.8 -11.2,-50.3z"></path><path id="Vector" fill-rule="evenodd" style="fill:#8AC251" opacity="1" d="M44.11 276.16C21.51 257.46 12.51 198.46 25.41 273.06C38.91 351.16 72.01 359.56 139.31 405.06C141.81 406.76 183.81 430.56 184.81 430.26C192.71 427.96 193.41 418.96 193.61 415.46C195.21 377.16 75.11 301.76 44.11 276.16Z"></path><path id="Vector" fill-rule="evenodd" style="fill:#679F34" opacity="1" d="M34.61 303.25C3.11 275.46 -10.19 189.36 8.71 298.46C27.41 406.76 60.81 439.26 141.31 499.26C170.81 521.26 192.21 485.86 192.81 465.25C194.51 409.16 77.51 341.06 34.61 303.25Z"></path><path id="Vector" fill-rule="evenodd" style="fill:#7DBB3E" opacity="1" d="M126.01 510.17C126.81 510.77 169.81 405.27 171.61 402.67C219.51 333.27 218.51 314.57 204.01 230.96C190.21 151.06 202.11 213.76 187.31 240.66C179.31 255.27 95.31 490.67 126.01 510.17Z"></path><path id="Vector" fill-rule="evenodd" style="fill:#679F34" opacity="1" d="M147.31 558.96C148.61 558.96 190.91 505.46 194.11 502.56C258.61 444.26 285.21 213.46 253.81 143.26C258.41 153.86 241.21 226.86 222.11 251.06C194.31 301.06 108.41 490.66 128.71 542.86C130.51 547.56 135.81 559.56 147.31 558.96Z"></path><path id="Vector" fill-rule="evenodd" style="fill:#FAE00D" opacity="1" d="M343.71 375.06C369.91 301.06 366.61 232.36 336.31 221.66C306.01 210.96 260.21 262.26 234.01 336.26C207.81 410.36 211.01 479.06 241.41 489.76C271.71 500.46 317.51 449.16 343.71 375.06Z"></path><path id="Vector" fill-rule="evenodd" style="fill:#F5CF0C" opacity="1" d="M224.51,367.66c2.6,-10.2 5.7,-20.8 9.5,-31.4c0.8,-2.3 1.6,-4.6 2.5,-6.9c0.3,0.1 0.6,0.2 1.1,0.3c9.7,3.4 14.7,14.7 11,25.2c-3.7,10.3 -14.3,15.9 -24.1,12.8zM256.31,286.36c7.3,3.7 10.9,12.7 7.9,21.1c-3.2,9 -12.6,13.8 -21,10.8c-0.7,-0.2 -1.3,-0.5 -1.9,-0.8c4.6,-11.1 9.7,-21.5 15,-31.1zM292.01,430.06c4.6,-12.7 17.9,-19.6 29.9,-15.3c1.4,0.5 2.7,1.1 3.9,1.8c-8.1,15.8 -17,29.6 -26.2,41c-7.9,-5.9 -11.2,-17.1 -7.6,-27.5zM314.61,337.06c-5.5,-2 -8.3,-8.3 -6.2,-14.1c2.1,-5.9 8.2,-9 13.7,-7.1c5.5,1.9 8.3,8.3 6.2,14.1c-2.1,5.9 -8.3,9 -13.7,7.1zM331.41,235.56c3.2,1.2 4.9,4.9 3.7,8.4c-1.3,3.5 -5,5.4 -8.3,4.2c-3.3,-1.1 -4.9,-4.9 -3.6,-8.4c1.2,-3.5 4.9,-5.4 8.2,-4.2zM343.61,375.16c-3.7,10.6 -7.9,20.8 -12.4,30.3c-9.5,-3.7 -14.3,-14.7 -10.7,-25c3.7,-10.5 14.7,-16.1 24.5,-12.6c0.4,0.1 0.7,0.2 1,0.4c-0.8,2.3 -1.6,4.6 -2.4,6.9zM317.41,290.36c1.6,-4.5 6.4,-7 10.7,-5.5c4.3,1.5 6.4,6.4 4.8,11c-1.7,4.6 -6.4,7.1 -10.7,5.5c-4.3,-1.5 -6.4,-6.4 -4.8,-11zM304.11,243.66c-2,5.7 -7.9,8.6 -13.1,6.8c-2.6,-0.9 -4.6,-2.8 -5.6,-5.2c5,-5.5 10,-10.1 15,-13.8c3.6,2.5 5.3,7.5 3.7,12.2zM327.51,269.46c-3.2,-1.1 -4.8,-4.7 -3.6,-8c1.2,-3.4 4.7,-5.2 7.9,-4.1c3.1,1.1 4.7,4.7 3.5,8c-1.2,3.4 -4.7,5.2 -7.8,4.1zM347.41,259.06c1.7,-4.7 6.1,-7.5 10.6,-7.2c1.5,6.1 2.4,12.8 2.9,20.2c-2.3,1.2 -5,1.4 -7.6,0.4c-5.3,-1.8 -7.9,-7.8 -5.9,-13.4zM292.21,281.36c1.5,-4.6 6.3,-7 10.6,-5.5c4.2,1.5 6.4,6.5 4.8,11c-1.5,4.7 -6.3,7.1 -10.6,5.6c-4.3,-1.5 -6.5,-6.5 -4.8,-11.1zM276.11,341.76c7.2,2.6 10.9,10.9 8.2,18.6c-2.8,7.7 -10.9,11.9 -18.1,9.3c-7.2,-2.5 -10.9,-10.9 -8.2,-18.6c2.7,-7.7 10.8,-11.9 18.1,-9.3zM338.31,333.66c2.9,-8.5 11.4,-13.2 19.3,-11.4c-1.8,10.8 -4.5,22.1 -7.8,33.6c-0.6,-0.1 -1.3,-0.3 -2,-0.5c-8.4,-3 -12.7,-12.7 -9.5,-21.7zM332.51,220.66c1.2,0.2 2.5,0.5 3.7,1c1.2,0.4 2.4,0.9 3.5,1.5c0.1,0.8 0.1,1.6 -0.3,2.5c-0.9,2.3 -3.4,3.7 -5.7,2.9c-2.2,-0.8 -3.4,-3.4 -2.5,-5.9c0.3,-0.8 0.7,-1.4 1.3,-2zM354.71,241.86c-1.8,0.8 -3.8,0.9 -5.9,0.3c-4.2,-1.6 -6.4,-6.5 -4.8,-11c0.4,-1.3 1.1,-2.3 1.9,-3.2c3.6,3.5 6.5,8.2 8.8,13.9zM267.81,279.36c-2.1,-0.7 -3.8,-2 -5.2,-3.6c4.8,-7.8 9.9,-15 15,-21.4c6,2.6 8.9,9.8 6.7,16.6c-2.5,7 -9.8,10.8 -16.5,8.4zM262.51,430.06c-10.4,-5.1 -15.4,-17.9 -11.2,-29.7c4.2,-11.9 16.1,-18.6 27.4,-16.1c10.3,5.2 15.3,17.9 11.1,29.7c-4.2,11.9 -16,18.6 -27.3,16.1zM345.71,292.66c2.3,-6.7 9.2,-10.4 15.6,-8.7c-0.1,8.2 -0.7,16.9 -1.8,26.1c-2.1,0.4 -4.3,0.2 -6.3,-0.5c-6.6,-2.3 -10,-9.9 -7.5,-16.9zM239.41,411.56c-3.7,10.4 -13.3,16.9 -23.2,16.6c0.1,-14.6 1.8,-31 5.5,-48.4c1.4,0.2 2.8,0.6 4.2,1.1c12,4.2 18,18 13.5,30.7zM317.31,252.36c3.1,1.1 4.7,4.7 3.5,8c-1.2,3.3 -4.7,5.1 -7.8,4c-3.2,-1.2 -4.8,-4.5 -3.6,-7.9c1.2,-3.4 4.7,-5.2 7.9,-4.1zM309.11,225.66c5.4,-2.9 10.6,-4.7 15.6,-5.2c0.1,1.1 -0.1,2.4 -0.6,3.7c-1.6,4.6 -6.4,7 -10.6,5.5c-1.9,-0.7 -3.5,-2.2 -4.4,-4zM289.31,362.16c2.7,-7.8 10.8,-11.9 18.1,-9.4c7.2,2.5 10.9,10.9 8.2,18.7c-2.8,7.8 -10.9,11.9 -18.1,9.3c-7.2,-2.5 -10.9,-10.9 -8.2,-18.6zM274.31,310.86c2.1,-5.9 8.2,-9 13.7,-7.1c5.5,2 8.3,8.3 6.2,14.1c-2.1,5.9 -8.2,9 -13.7,7.1c-5.5,-2 -8.3,-8.2 -6.2,-14.1z"></path><path id="Vector" fill-rule="evenodd" style="fill:#8AC251" opacity="1" d="M226.21 360.76C219.51 343.26 232.91 307.76 216.81 353.26C200.01 400.76 215.71 415.66 238.81 461.76C239.71 463.55 255.61 489.76 256.21 489.95C261.51 491.06 264.6 486.35 265.71 484.45C278.6 463.66 235.41 384.56 226.21 360.76Z"></path><path id="Vector" fill-rule="evenodd" style="fill:#679F34" opacity="1" d="M212.61 372.76C203.81 347.56 223.21 295.76 199.71 362.06C176.41 427.96 184.81 456.36 210.71 514.66C220.21 536.06 243.11 523.06 249.91 511.76C268.21 481.26 224.61 407.16 212.61 372.76Z"></path><path id="Vector" fill-rule="evenodd" style="fill:#7DBB3E" opacity="1" d="M198.81 515.85C199.11 516.45 255.71 471.45 257.51 470.55C305.61 446.95 310.91 436.25 328.91 385.45C346.11 336.85 333.31 375.35 316.71 385.65C307.71 391.25 187.91 495.55 198.81 515.85Z"></path><path id="Vector" fill-rule="evenodd" style="fill:#679F34" opacity="1" d="M195.51 549.76C196.21 550.06 236.31 533.56 239.01 532.96C292.81 520.66 379.31 401.06 383.81 352.36C383.01 359.66 350.81 394.76 332.71 402.26C301.81 421.36 195.11 499.56 190.21 534.86C189.81 538.06 189.01 546.36 195.51 549.76Z"></path></g><g opacity="1"  transform="translate(47.89990234375 77.260009765625)  rotate(0)"><path id="Vector" fill-rule="evenodd" style="fill:#929A09" opacity="1" d="M295.41 141.54C304.51 129.04 287.5 104.04 280.2 74.14C274.5 50.44 259.6 28.84 245.4 15.74C184 -41.06 235.7 73.34 236.7 83.54C239.4 115.14 221.3 137.44 223.4 141.14C227.1 147.74 284.4 156.44 295.41 141.54Z"></path><path id="Vector" fill-rule="evenodd" style="fill:#DF6F0B" opacity="1" d="M0 305.44C0 400.74 70.7 478.04 157.8 478.04C176.8 478.04 195.1 474.24 212 467.54C228.9 474.34 247.2 478.04 266.3 478.04C285.3 478.04 303.6 474.24 320.5 467.54C337.4 474.34 355.6 478.04 374.7 478.04C461.8 478.04 532.5 400.84 532.5 305.44C532.5 210.14 461.8 132.84 374.7 132.84C355.7 132.84 337.4 136.54 320.5 143.34C303.6 136.54 285.4 132.84 266.3 132.84C247.2 132.84 228.9 136.54 212 143.34C195.1 136.54 176.9 132.84 157.8 132.84C70.7 132.84 0 210.14 0 305.44Z"></path><path id="Vector" fill-rule="evenodd" style="fill:#EC8924" opacity="1" d="M168.6,477.74c-66.3,-26.8 -113.3,-93.7 -113.3,-172.1c-0.0999,-78.6 47.1,-145.7 113.8,-172.3c14.8,1.1 29.1,4.5 42.5,9.9c-55.6,31.2 -93.3,92.2 -93.3,162.4c0,70.1 37.6,131.1 93.1,162.3c-13.5,5.3 -27.9,8.7 -42.8,9.8zM312.5,470.54c58.1,-30.3 97.9,-92.8 97.9,-164.9c0,-72.7 -40.5,-135.6 -99.2,-165.6c3.2,1 6.3,2.1 9.4,3.3c12.5,-5 25.9,-8.3 39.8,-9.7c66.1,26.8 113.1,93.7 113.1,172c0,78 -46.7,144.8 -112.6,171.8c-14.1,-1.4 -27.6,-4.8 -40.3,-9.8c-2.7,1 -5.3,2.1 -8.1,2.9z"></path><path id="Vector" fill-rule="evenodd" style="fill:#F49C20" opacity="1" d="M315.6 304.84C315.6 211.04 292.5 134.34 264.3 134.34C236 134.34 213 210.94 213 304.84C213 398.84 236.1 475.44 264.3 475.44C292.5 475.44 315.6 398.84 315.6 304.84Z"></path></g><g opacity="1"  transform="translate(423.7900390625 466.27001953125)  rotate(0)"><path id="Vector" fill-rule="evenodd" style="fill:#759935" opacity="1" d="M192.91 117.03C202.31 113.23 212.31 109.93 222.91 106.43C234.51 102.63 246.61 98.7299 258.51 93.9299C260.21 93.2299 261.01 91.2299 260.31 89.4299C259.51 87.7299 257.61 86.9299 255.81 87.6299C244.01 92.4299 232.11 96.3299 220.81 100.03C210.01 103.53 199.71 106.83 190.21 110.63C146.11 128.63 95.4101 125.93 56.8101 123.83C32.9101 122.53 13.6101 121.53 2.61012 125.73C0.810117 126.43 -0.0898828 128.33 0.610117 130.13C1.31012 131.93 3.31012 132.73 5.01012 132.13C14.8101 128.43 33.4101 129.43 56.6101 130.73C95.8101 132.73 147.41 135.53 192.91 117.03Z"></path><path id="Vector" fill-rule="evenodd" style="fill:#B9C736" opacity="1" d="M43.9099 119.93C38.7099 119.13 33.1099 119.13 28.1099 119.73C21.0099 120.43 14.8099 122.03 12.8099 123.03C11.1099 123.93 10.4099 125.93 11.3099 127.63C12.2099 129.33 14.2199 130.03 15.9099 129.13C17.4199 128.33 22.5199 127.13 28.9099 126.43C33.3099 126.03 38.3199 125.93 43.0099 126.63C68.2099 130.23 96.1099 127.93 123.31 122.73C160.11 115.63 195.51 103.03 219.91 92.73C221.62 92.03 222.51 90.03 221.71 88.23C221.01 86.63 219.01 85.73 217.32 86.53C193.22 96.63 158.31 109.03 121.92 116.03C95.4199 121.13 68.3099 123.33 43.9099 119.93Z"></path><path id="Vector" fill-rule="evenodd" style="fill:#809F38" opacity="1" d="M244.01 40.6299C245.41 39.4299 245.61 37.2299 244.41 35.8299C243.21 34.4299 241.01 34.2299 239.61 35.4299C221.11 51.3299 207.51 60.0299 192.41 65.3299C177.21 70.7299 160.31 72.9299 135.51 76.2299C112.21 79.2299 85.3099 88.7299 61.8099 97.0299C54.1099 99.7299 46.8099 102.33 39.9099 104.53C34.1199 106.33 26.4099 111.63 19.2099 116.53C12.4099 121.13 5.91991 125.53 3.70991 125.53C1.81991 125.63 0.309912 127.23 0.409912 129.03C0.409912 130.93 2.01991 132.43 3.91991 132.33C8.10991 132.23 15.3199 127.43 23.0099 122.13C29.9099 117.53 37.2099 112.63 42.1099 111.03C48.7099 108.93 56.3199 106.23 64.2099 103.43C87.3099 95.2299 113.91 85.8299 136.51 82.9299C161.61 79.6299 178.81 77.3299 194.71 71.7299C210.61 66.1299 224.91 57.1299 244.01 40.6299Z"></path><path id="Vector" fill-rule="evenodd" style="fill:#B9C736" opacity="1" d="M125.01 68.43C170.61 54.23 221.21 38.53 258.31 5.93C259.71 4.73 259.91 2.53 258.61 1.13C257.41 -0.27 255.21 -0.37 253.81 0.83C217.91 32.43 167.91 47.93 123.01 61.93C77.91 75.93 37.71 88.43 19.81 114.43C18.81 116.03 19.21 118.23 20.71 119.23C22.31 120.33 24.41 119.93 25.51 118.33C42.01 94.33 81.11 82.03 125.01 68.43Z"></path><path id="Vector" fill-rule="evenodd" style="fill:#F99E3F" opacity="1" d="M130.21 92.9301C120.81 97.7301 130.21 105.24 151.21 109.54C172.21 113.74 196.81 113.24 206.21 108.34C215.51 103.44 206.01 96.0301 185.11 91.7301C164.11 87.4301 139.51 88.0301 130.21 92.9301Z"></path><path id="Vector" fill-rule="evenodd" style="fill:#F99E3F" opacity="1" d="M177.71 76.0301C169.61 80.7301 179.31 86.6301 199.31 89.2301C219.41 91.8301 242.31 90.1301 250.41 85.4301C258.41 80.7301 248.81 74.8301 228.71 72.3301C208.71 69.7301 185.81 71.3301 177.71 76.0301Z"></path><path id="Vector" fill-rule="evenodd" style="fill:#F99E3F" opacity="1" d="M221.01 57.7299C215.01 62.0299 224.91 65.4299 243.11 65.5299C261.41 65.6299 281.11 62.2299 287.11 57.9299C293.21 53.7299 283.41 50.2299 265.11 50.1299C246.81 50.1299 227.11 53.5299 221.01 57.7299Z"></path><path id="Vector" fill-rule="evenodd" style="fill:#F99E3F" opacity="1" d="M122 28.23C110.31 32.93 94.0101 53.33 85.7101 73.54C77.3101 93.74 80.0101 106.34 91.7101 101.64C103.41 96.94 119.7 76.64 128 56.33C136.3 36.13 133.6 23.53 122 28.23Z"></path><path id="Vector" fill-rule="evenodd" style="fill:#F99E3F" opacity="1" d="M172.21 27.4299C162.01 30.4299 144.11 47.3299 132.01 64.9299C119.91 82.6299 118.31 94.4299 128.51 91.4299C138.71 88.4299 156.71 71.6299 168.81 53.9299C180.81 36.2299 182.41 24.3299 172.21 27.4299Z"></path><path id="Vector" fill-rule="evenodd" style="fill:#F99E3F" opacity="1" d="M221.52 15.63C212.51 17.93 194.91 32.6301 182.31 48.43C169.71 64.23 166.91 75.23 176.01 72.9301C185.01 70.6301 202.61 55.93 215.21 40.03C227.72 24.23 230.62 13.23 221.52 15.63Z"></path><path id="Vector" fill-rule="evenodd" style="fill:#F99E3F" opacity="1" d="M265.41 7.52996C258.11 8.72996 241.61 20.03 228.51 32.83C215.51 45.64 210.81 55.04 218.11 53.84C225.41 52.74 241.91 41.44 254.91 28.63C268.01 15.93 272.71 6.52996 265.41 7.52996Z"></path><path id="Vector" fill-rule="evenodd" style="fill:#F99E3F" opacity="1" d="M245.01 43.5299C244.61 44.1299 244.61 44.5299 244.81 44.9299C244.81 45.3299 245.21 45.6299 245.81 45.8299C248.41 46.7299 255.01 45.5299 263.71 43.0299C267.81 41.8299 272.51 40.2299 277.61 38.3299C298.01 30.7299 316.51 20.9399 318.91 16.2399C319.21 15.6399 319.21 15.0399 319.01 14.7399C318.91 14.3399 318.51 13.9399 317.91 13.7399C312.91 12.0399 292.81 17.8399 272.91 26.6299C268.11 28.8299 263.61 30.9299 259.81 33.0299C251.81 37.2299 246.21 41.0299 245.01 43.5299Z"></path><path id="Vector" fill-rule="evenodd" style="fill:#F99E3F" opacity="1" d="M89.91 106.13C78.21 110.83 85.11 121.73 105.11 130.43C125.21 139.13 151.01 142.34 162.71 137.63C174.41 132.83 167.61 121.93 147.51 113.23C127.41 104.53 101.61 101.33 89.91 106.13Z"></path><path id="Vector" fill-rule="evenodd" style="fill:#9FB342" opacity="1" d="M20.51 119.73C10.51 122.03 4.21 123.53 2.11 124.53C0.31 125.33 -0.49 127.33 0.31 129.03C1.11 130.73 3.11 131.43 4.81 130.73C6.21 130.03 12.31 128.63 22.01 126.33C62.31 116.63 147.11 96.93 248.71 46.93C250.41 46.13 251.11 44.13 250.31 42.43C249.41 40.73 247.41 40.03 245.71 40.83C142.41 89.33 60.01 109.83 20.51 119.73Z"></path><path id="Vector" fill-rule="evenodd" style="fill:#759935" opacity="1" d="M110.31 154.23C126.12 153.73 152.31 164.23 184.71 177.13C239.91 199.23 312.42 228.33 386.52 224.03C401.72 223.13 417.92 223.33 434.62 223.53C453.02 223.83 472.12 224.03 491.52 222.93C494.32 222.73 496.62 220.33 496.42 217.53C496.12 214.73 493.82 212.43 490.92 212.63C471.72 213.73 452.82 213.43 434.72 213.23C417.62 213.03 401.22 212.83 385.82 213.73C314.02 217.93 242.72 189.33 188.52 167.63C155.01 154.23 127.91 143.33 110.01 143.93C107.11 144.13 104.91 146.43 105.01 149.33C105.11 152.13 107.41 154.33 110.31 154.23Z"></path><path id="Vector" fill-rule="evenodd" style="fill:#B9C736" opacity="1" d="M121.51 150.93C122.01 153.83 124.61 155.73 127.41 155.33C129.91 154.93 137.81 155.63 147.31 157.73C153.91 159.33 161.11 161.63 167.51 164.83C201.81 182.33 242.91 192.64 284.21 198.34C340.52 206.14 397.22 205.44 437.22 202.54C440.12 202.24 442.22 199.84 442.02 196.94C441.82 194.14 439.32 191.94 436.52 192.14C397.11 195.14 341.11 195.74 285.61 188.04C245.21 182.43 205.22 172.33 172.11 155.53C164.91 152.03 156.92 149.33 149.51 147.63C138.81 145.23 129.31 144.53 125.91 145.03C123.01 145.53 121.11 148.13 121.51 150.93Z"></path><path id="Vector" fill-rule="evenodd" style="fill:#809F38" opacity="1" d="M140.81 148.73C152.81 145.43 165.71 141.93 173.41 142.03C183.91 142.13 196.01 142.03 208.71 141.83C245.91 141.43 288.51 141.03 322.21 147.83C359.91 155.43 385.61 160.53 411.01 160.23C436.61 159.83 461.41 154.03 496.81 139.63C499.51 138.53 500.81 135.53 499.71 132.93C498.61 130.23 495.61 129.03 493.01 130.03C458.81 143.93 435.11 149.63 410.91 149.93C386.51 150.33 361.31 145.23 324.31 137.83C289.51 130.83 246.31 131.23 208.71 131.73C196.41 131.83 184.71 132.03 173.71 131.83C164.51 131.73 150.91 135.43 138.21 138.93C126.11 142.13 114.91 145.23 111.71 144.23C108.91 143.33 106.11 144.83 105.21 147.63C104.31 150.33 105.81 153.23 108.51 154.03C114.61 156.03 127.41 152.53 140.81 148.73Z"></path><path id="Vector" fill-rule="evenodd" style="fill:#B9C736" opacity="1" d="M313.11 121.73C385.31 123.63 465.41 125.73 534.31 97.23C536.91 96.03 538.21 93.03 537.11 90.43C536.11 87.83 533.11 86.53 530.41 87.63C463.61 115.33 384.61 113.23 313.51 111.33C242.11 109.43 178.41 107.73 140.21 136.23C137.91 137.83 137.41 141.13 139.11 143.43C140.81 145.63 144.01 146.13 146.31 144.43C181.71 118.13 243.71 119.73 313.11 121.73Z"></path><path id="Vector" fill-rule="evenodd" style="fill:#F99E3F" opacity="1" d="M308.51 159.13C292.71 161.63 302.51 176.83 330.41 193.13C358.31 209.53 393.81 220.73 409.61 218.23C425.41 215.73 415.71 200.53 387.71 184.23C359.71 167.93 324.31 156.63 308.51 159.13Z"></path><path id="Vector" fill-rule="evenodd" style="fill:#F99E3F" opacity="1" d="M384.81 158.13C370.91 160.93 381.91 174.13 409.31 187.53C436.71 201.03 470.21 209.73 484.11 207.03C498.01 204.23 487.01 191.13 459.61 177.63C432.21 164.13 398.71 155.43 384.81 158.13Z"></path><path id="Vector" fill-rule="evenodd" style="fill:#F99E3F" opacity="1" d="M455.71 153.13C445.01 156.23 457.41 166.03 483.61 175.04C509.71 183.94 539.61 188.74 550.31 185.64C561.01 182.44 548.51 172.64 522.51 163.73C496.41 154.73 466.41 150.03 455.71 153.13Z"></path><path id="Vector" fill-rule="evenodd" style="fill:#F99E3F" opacity="1" d="M328.21 62.6401C309.21 63.7401 276.11 84.8301 254.31 109.74C232.41 134.64 230.21 154.04 249.21 152.94C268.31 151.84 301.41 130.64 323.21 105.73C345.01 80.8401 347.31 61.5401 328.21 62.6401Z"></path><path id="Vector" fill-rule="evenodd" style="fill:#F99E3F" opacity="1" d="M400.71 85.8301C384.71 85.3301 350.81 100.53 324.91 119.93C299.01 139.43 291.01 155.63 307.01 156.23C323.01 156.83 356.91 141.63 382.81 122.13C408.71 102.73 416.61 86.4301 400.71 85.8301Z"></path><path id="Vector" fill-rule="evenodd" style="fill:#F99E3F" opacity="1" d="M476.92 92.9301C462.82 91.7301 430.52 104.23 404.82 120.83C379.02 137.33 369.71 151.63 383.81 152.73C397.91 153.93 430.21 141.33 455.92 124.83C481.62 108.23 491.02 93.9301 476.92 92.9301Z"></path><path id="Vector" fill-rule="evenodd" style="fill:#F99E3F" opacity="1" d="M543.51 102.93C532.51 101.13 503.31 109.23 478.41 121.13C453.51 133.03 442.31 144.23 453.31 146.03C464.21 147.93 493.41 139.83 518.31 127.93C543.21 116.03 554.51 104.83 543.51 102.93Z"></path><path id="Vector" fill-rule="evenodd" style="fill:#F99E3F" opacity="1" d="M616.71 139.13C616.81 138.43 616.51 137.73 615.61 137.13C609.31 132.23 577.71 130.73 544.91 133.63C536.91 134.43 529.51 135.33 523.01 136.43C509.61 138.63 499.71 141.33 496.81 144.23C496.11 144.83 495.81 145.53 495.91 146.13C495.91 146.73 496.21 147.33 496.91 147.93C500.21 150.53 510.31 152.03 523.91 152.63C530.41 152.93 537.91 153.03 546.01 152.73C578.91 151.93 610.21 146.73 615.81 141.23C616.61 140.43 616.91 139.73 616.71 139.13Z"></path><path id="Vector" fill-rule="evenodd" style="fill:#F99E3F" opacity="1" d="M244.61 158.23C225.61 159.33 230.11 178.23 254.61 200.43C279.11 222.73 314.52 239.93 333.52 238.83C352.52 237.73 348.02 218.93 323.52 196.53C299.02 174.33 263.61 157.13 244.61 158.23Z"></path><path id="Vector" fill-rule="evenodd" style="fill:#9FB342" opacity="1" d="M138.61 143.93C123.11 142.53 113.21 141.53 109.81 141.93C106.91 142.23 104.91 144.73 105.21 147.53C105.51 150.43 108.01 152.43 110.81 152.23C113.21 152.03 122.71 152.93 137.71 154.33C200.11 160.13 330.91 173.23 500.71 151.23C503.41 150.83 505.51 148.23 505.11 145.43C504.71 142.63 502.21 140.63 499.31 141.03C327.71 159.93 200.01 149.13 138.61 143.93Z"></path></g><g opacity="1"  transform="translate(0 356.489990234375)  rotate(0)"><path id="Vector" fill-rule="evenodd" style="fill:#EF5160" opacity="1" d="M121.4 216.71C121.4 277.01 156.8 325.81 200.5 325.81C211.3 325.81 221.6 322.81 231 317.41C240.5 322.81 250.7 325.81 261.6 325.81C305.3 325.81 340.7 277.01 340.7 216.71C340.7 156.41 305.3 107.51 261.6 107.51C250.7 107.51 240.4 110.51 231 116.01C221.6 110.51 211.3 107.51 200.5 107.51C156.9 107.51 121.4 156.41 121.4 216.71Z"></path><path id="Vector" fill-rule="evenodd" style="fill:#F16270" opacity="1" d="M232.8 318.41C241.6 323.21 251.3 325.81 261.5 325.81C305.2 325.81 340.6 277.01 340.6 216.71C340.6 156.41 305.2 107.51 261.5 107.51C251.4 107.51 241.7 110.21 232.8 115.01L232.8 318.41Z"></path><path id="Vector" fill-rule="evenodd" style="fill:#8AC251" opacity="1" d="M259.7 61.5C282.2 5.5 353.1 12.3 310.5 3.6C242.9 -10.2 204.8 15.2 218.2 87.1C230.5 77.9 250.8 83.2 259.7 61.5Z"></path><path id="Vector" fill-rule="evenodd" style="fill:#80101D" opacity="1" d="M163.89 85.0101C139.4 98.8101 175.39 89.8101 181.39 89.7101C189.59 89.6101 199.69 91.2101 208.19 95.3101C220.99 101.51 230.09 113.91 232.79 121.81C245.29 85.3101 193.09 68.4101 163.89 85.0101Z"></path><path id="Vector" fill-rule="evenodd" style="fill:#8AC251" opacity="1" d="M110.31 149.41C128.41 104.71 185.11 110.11 151.01 103.11C97.0101 92.11 66.6001 112.31 77.2001 169.81C87.1001 162.51 103.31 166.71 110.31 149.41Z"></path><path id="Vector" fill-rule="evenodd" style="fill:#80101D" opacity="1" d="M33.9001 168.1C14.2001 179.1 43.0001 171.9 47.9001 171.8C54.5001 171.7 62.5001 173 69.3001 176.3C79.5001 181.3 86.8001 191.1 89.0001 197.6C98.8001 168.4 57.2001 155 33.9001 168.1Z"></path><path id="Vector" fill-rule="evenodd" style="fill:#EF5160" opacity="1" d="M0 273.4C0 321.5 28.3 360.6 63.2 360.6C71.9 360.6 80.1 358.3 87.6 353.9C95.2 358.2 103.3 360.6 112 360.6C146.9 360.6 175.2 321.5 175.2 273.4C175.2 225.2 146.9 186.1 112 186.1C103.3 186.1 95.1 188.6 87.6 192.9C80.1 188.6 71.9 186.1 63.2 186.1C28.2 186.1 0 225.2 0 273.4Z"></path><path id="Vector" fill-rule="evenodd" style="fill:#F16270" opacity="1" d="M89 354.7C96.1 358.5 103.8 360.6 111.9 360.6C146.8 360.6 175.1 321.5 175.1 273.4C175.1 225.2 146.8 186.1 111.9 186.1C103.8 186.1 96.1 188.3 89 192.1L89 354.7Z"></path></g><g opacity="1"  transform="translate(292.699951171875 516.68994140625)  rotate(0)"><path id="Vector" fill-rule="evenodd" style="fill:#629435" opacity="1" d="M229.6 97.1101C229.6 54.5101 194.8 19.6101 152.1 19.6101C109.5 19.6101 74.7 54.5101 74.7 97.1101C74.7 139.71 109.5 174.61 152.1 174.61C194.8 174.61 229.6 139.71 229.6 97.1101Z"></path><path id="Vector" fill-rule="evenodd" style="fill:#9FB44D" opacity="1" d="M223 120.41C223 61.6101 175 13.6101 116.2 13.6101C57.4 13.6101 9.5 61.6101 9.5 120.41C9.5 179.21 57.5 227.21 116.2 227.21C175 227.21 223 179.21 223 120.41Z"></path><path id="Vector" fill-rule="evenodd" style="fill:#629435" opacity="1" d="M135.6 167.81C90.8 167.81 54.5 131.51 54.5 86.7101C54.5 69.2101 60 53.0101 69.4 39.8101C30.1 45.8101 0 79.8101 0 120.81C0 166.01 36.6 202.71 81.9 202.71C110.3 202.71 135.2 188.31 149.9 166.51C145.3 167.31 140.5 167.71 135.6 167.81Z"></path><path id="Vector" fill-rule="evenodd" style="fill:#77AC3A" opacity="1" d="M232.9 122.01C232.9 79.1101 198 44.3101 155.2 44.3101C112.4 44.3101 77.5 79.2101 77.5 122.01C77.5 164.81 112.4 199.71 155.2 199.71C198 199.71 232.9 164.81 232.9 122.01Z"></path><path id="Vector" fill-rule="evenodd" style="fill:#B7CF5D" opacity="1" d="M94.0999 96.5101C73.2999 76.2101 53.6999 16.2201 23.3999 36.8101C-5.30011 56.3101 24.5999 73.7101 30.3999 86.1101C46.4999 120.81 58.6999 109.61 64.5999 124.71C79.5999 163.11 92.2999 146.11 106.2 174.81C115.7 161.21 113.1 115.21 94.0999 96.5101Z"></path><path id="Vector" fill-rule="evenodd" style="fill:#629435" opacity="1" d="M93.6 104.31C93.6 68.01 70.2 57.21 73.8 31.61C78.5 -2.79 52.1 -0.89 51.3 0.71C33.2 36.31 43 35.91 73.5 85.31C70.5 91.81 84.9 104.41 93.6 104.31Z"></path><path id="Vector" fill-rule="evenodd" style="fill:#B7CF5D" opacity="1" d="M185.6 52.8099C195.9 -54.0901 106.2 62.4099 106.2 134.51C121.2 134.91 184.1 68.8099 185.6 52.8099Z"></path><path id="Vector" fill-rule="evenodd" style="fill:#629435" opacity="1" d="M346.5 144.31C346.5 116.91 324.1 94.4099 296.6 94.4099C269.1 94.4099 246.7 116.81 246.7 144.31C246.7 171.81 269.1 194.21 296.6 194.21C324.1 194.21 346.5 171.71 346.5 144.31Z"></path><path id="Vector" fill-rule="evenodd" style="fill:#9FB44D" opacity="1" d="M342.2 159.31C342.2 121.41 311.3 90.51 273.5 90.51C235.6 90.51 204.7 121.41 204.7 159.31C204.7 197.11 235.6 228.01 273.5 228.01C311.3 228.01 342.2 197.11 342.2 159.31Z"></path><path id="Vector" fill-rule="evenodd" style="fill:#629435" opacity="1" d="M285.9 189.71C257 189.71 233.7 166.31 233.7 137.51C233.7 126.21 237.2 115.81 243.3 107.21C218 111.11 198.6 133.01 198.6 159.41C198.6 188.51 222.2 212.21 251.3 212.21C269.5 212.21 285.6 203.01 295.1 188.91C292.1 189.51 289 189.71 285.9 189.71Z"></path><path id="Vector" fill-rule="evenodd" style="fill:#77AC3A" opacity="1" d="M348.5 160.31C348.5 132.71 326 110.31 298.5 110.31C270.9 110.31 248.5 132.81 248.5 160.31C248.4 187.81 270.9 210.31 298.5 210.31C326.1 210.31 348.5 187.81 348.5 160.31Z"></path><path id="Vector" fill-rule="evenodd" style="fill:#B7CF5D" opacity="1" d="M259.2 143.91C245.8 130.81 233.2 92.21 213.7 105.51C195.2 118.11 214.4 129.31 218.1 137.31C228.5 159.61 236.4 152.31 240.2 162.11C249.9 186.81 258.1 175.81 267 194.31C273.1 185.51 271.4 155.91 259.2 143.91Z"></path><path id="Vector" fill-rule="evenodd" style="fill:#629435" opacity="1" d="M258.9 148.91C258.9 125.51 243.9 118.51 246.1 102.11C249.1 80.01 232.1 81.21 231.6 82.21C219.9 105.21 226.3 104.91 245.9 136.71C243.9 140.91 253.2 148.91 258.9 148.91Z"></path><path id="Vector" fill-rule="evenodd" style="fill:#B7CF5D" opacity="1" d="M318.1 115.71C324.7 47.01 267 121.91 267 168.31C276.6 168.61 317.1 126.11 318.1 115.71Z"></path><path id="Vector" fill-rule="evenodd" style="fill:#629435" opacity="1" d="M235.5 208.51C235.5 186.81 217.8 169.11 196.1 169.11C174.4 169.11 156.7 186.81 156.7 208.51C156.7 230.21 174.5 247.91 196.1 247.91C217.8 247.91 235.5 230.21 235.5 208.51Z"></path><path id="Vector" fill-rule="evenodd" style="fill:#9FB44D" opacity="1" d="M232.2 220.51C232.2 190.61 207.8 166.21 177.9 166.21C148 166.21 123.7 190.61 123.7 220.51C123.6 250.31 148 274.71 177.9 274.71C207.8 274.71 232.2 250.31 232.2 220.51Z"></path><path id="Vector" fill-rule="evenodd" style="fill:#629435" opacity="1" d="M187.8 244.51C165 244.51 146.6 226.01 146.6 203.21C146.6 194.31 149.3 186.21 154.1 179.41C134.1 182.51 118.8 199.71 118.8 220.51C118.8 243.51 137.5 262.21 160.5 262.21C174.8 262.21 187.5 254.91 195 243.81C192.6 244.31 190.2 244.51 187.8 244.51Z"></path><path id="Vector" fill-rule="evenodd" style="fill:#77AC3A" opacity="1" d="M237.1 221.21C237.1 199.41 219.3 181.71 197.6 181.71C175.8 181.71 158.1 199.51 158.1 221.21C158.2 242.91 175.9 260.71 197.6 260.71C219.4 260.71 237.1 242.91 237.1 221.21Z"></path><path id="Vector" fill-rule="evenodd" style="fill:#B7CF5D" opacity="1" d="M166.6 208.31C156 197.91 146.1 167.51 130.7 178.01C116.1 187.81 131.4 196.71 134.3 203.01C142.5 220.61 148.7 214.91 151.7 222.61C159.3 242.11 165.7 233.51 172.8 248.11C177.5 241.21 176.3 217.81 166.6 208.31Z"></path><path id="Vector" fill-rule="evenodd" style="fill:#629435" opacity="1" d="M166.3 212.31C166.3 193.81 154.5 188.31 156.3 175.31C158.7 157.91 145.3 158.91 144.9 159.61C135.6 177.71 140.6 177.51 156.1 202.61C154.6 205.91 162 212.31 166.3 212.31Z"></path><path id="Vector" fill-rule="evenodd" style="fill:#B7CF5D" opacity="1" d="M213.1 186.02C218.4 131.71 172.8 190.92 172.7 227.52C180.4 227.82 212.3 194.22 213.1 186.02Z"></path></g></g></svg>
