<?xml version="1.0" standalone="no"?><!DOCTYPE svg PUBLIC "-//W3C//DTD SVG 1.1//EN" "http://www.w3.org/Graphics/SVG/1.1/DTD/svg11.dtd"><svg t="1743400721376" class="icon" viewBox="0 0 1027 1024" version="1.1" xmlns="http://www.w3.org/2000/svg" p-id="6612" xmlns:xlink="http://www.w3.org/1999/xlink" width="200.5859375" height="200"><path d="M1015.833068 736.931202l-14.498175-24.88217 14.35036-24.635812a90.709059 90.709059 0 0 0-32.790265-123.844227 89.514223 89.514223 0 0 0-9.065979-4.619214l-24.906806-10.359359-1.995501-21.654879v-0.443445a90.561245 90.561245 0 0 0-88.750512-80.682284 52.696002 52.696002 0 0 0-20.731036 2.894708l-21.642561 3.695372h-0.739074l-20.201366-22.172231a88.171571 88.171571 0 0 0-132.491396 0l-20.201366 22.172231h-0.751392l-26.113961-4.397492h-1.23179c-0.431127-0.086225-1.05934-0.246358-1.552057-0.369537a51.427257 51.427257 0 0 0-12.576582-1.786097 90.561245 90.561245 0 0 0-89.625083 80.694602l-2.007819 22.172231-24.537269 10.039093-0.726756 0.320266A91.312637 91.312637 0 0 0 437.642881 679.948569c1.108612 2.463581 2.340402 4.927162 3.695371 7.230611l14.485858 24.869852-14.338043 24.635812a90.58588 90.58588 0 0 0 32.777948 123.856544 92.187208 92.187208 0 0 0 9.065979 4.619215l24.919124 10.371677 1.958547 21.679514v0.480398a90.561245 90.561245 0 0 0 88.688922 80.682284 52.474279 52.474279 0 0 0 20.731036-2.894708l21.630243-3.695371h0.751392l20.201366 22.17223a87.555676 87.555676 0 0 0 60.283832 29.784697c2.032454 0.135497 4.064909 0.209404 6.085045 0.209404a87.555676 87.555676 0 0 0 57.894158-21.765739 89.452633 89.452633 0 0 0 8.240679-8.216044l20.201366-22.17223h0.739075l26.126278 4.397492h1.231791c0.418809 0.086225 1.047022 0.246358 1.552056 0.369537a50.737455 50.737455 0 0 0 12.576582 1.786097 90.573562 90.573562 0 0 0 89.785216-80.645331l2.044773-22.17223 24.438725-10.162273 0.726757-0.320265a91.288001 91.288001 0 0 0 45.416119-120.863294c-1.182519-2.475899-2.41431-4.902527-3.720008-7.255246z m-99.959807 21.433156l14.2395 24.475679-21.5317 8.930482h-0.135497a89.612766 89.612766 0 0 0-54.014017 72.047432l-1.995501 21.679514-25.966146-4.372856h-1.231791l-1.490466-0.369537a50.503414 50.503414 0 0 0-12.576582-1.835368h-1.022386a94.084166 94.084166 0 0 0-64.718278 29.439795l-19.092755 20.94044-18.710899-20.509313-0.332583-0.369538a94.022576 94.022576 0 0 0-64.287151-29.415159 52.240239 52.240239 0 0 0-21.273024 2.956297l-21.433156 3.609147-1.933911-20.94044a85.978984 85.978984 0 0 0-54.457463-72.872732l-21.285341-8.856574 13.783737-23.675015 0.443444-0.800664a93.813172 93.813172 0 0 0 0-88.442565l-14.17791-24.549587 21.519382-8.942799 0.135497-0.06159a89.612766 89.612766 0 0 0 54.0017-72.035114l2.007818-21.679514 25.953828 4.360538h1.231791l1.552056 0.369537a50.392553 50.392553 0 0 0 12.317906 1.786097 86.902827 86.902827 0 0 0 66.405831-30.068009l18.636992-20.373816 18.760171 20.620174 0.344901 0.35722a93.99794 93.99794 0 0 0 64.237879 29.427477 52.425008 52.425008 0 0 0 21.223752-2.870072l21.482428-3.609146 1.921594 21.002029a86.052891 86.052891 0 0 0 54.395872 72.848096l21.309978 8.856574-13.796055 23.675016-0.443445 0.812981a93.813172 93.813172 0 0 0 0 88.454883z" p-id="6613"></path><path d="M699.662836 806.798749m-44.237618 10.441026a45.453073 45.453073 0 1 0 88.475236-20.882052 45.453073 45.453073 0 1 0-88.475236 20.882052Z" p-id="6614"></path><path d="M696.380495 635.628743a40.008559 40.008559 0 1 0-39.99624 39.996241 40.045512 40.045512 0 0 0 39.99624-39.996241z" p-id="6615"></path><path d="M819.596508 687.339312m-61.429397 0a61.429397 61.429397 0 1 0 122.858794 0 61.429397 61.429397 0 1 0-122.858794 0Z" p-id="6616"></path><path d="M424.006959 447.916174l17.23275 27.23489-17.23275-27.23489zM366.753332 437.852445c-30.141916 23.330114-76.802144 63.104632-128.401852 120.456803a1124.760311 1124.760311 0 0 0-115.911495 153.653558V555.377586C122.439985 303.069918 326.917224 98.543408 579.274163 98.543408h150.278453v145.35129a49.271624 49.271624 0 0 0 49.271624 49.271624 49.271624 49.271624 0 0 0 49.271624-49.271624V0.00016h-248.821701A554.970935 554.970935 0 0 0 23.88442 555.377586v321.497345h12.983073q-19.597788 46.808043-35.11835 95.426818a36.953718 36.953718 0 0 0 25.202435 46.721817 36.953718 36.953718 0 0 0 45.219033-24.290911 1066.841517 1066.841517 0 0 1 45.416119-117.857724h158.149595a29.944829 29.944829 0 0 0 29.698471-31.780197l-2.377356-38.641271a30.006419 30.006419 0 0 0-30.068008-28.109461h-104.221803a1053.180959 1053.180959 0 0 1 122.64939-168.508954c48.951358-54.728456 93.431317-92.47052 120.986472-113.792815a37.052261 37.052261 0 1 0-45.650159-58.189788z" p-id="6617"></path><path d="M421.481788 443.925173c0.431127 0.665167 0.8253 1.35497 1.231791 2.032454s0.899207 1.29338 1.330333 1.958547z" p-id="6618"></path></svg>